<svg width="189" height="68" viewBox="0 0 189 68" fill="none" xmlns="http://www.w3.org/2000/svg">
<path d="M18.2776 60.7386C17.9776 60.6086 18.4976 62.6386 18.5376 63.0186C18.8776 62.4786 18.1676 60.2086 18.2776 60.7386Z" fill="#1D1D1B"/>
<path d="M21.9076 55.2386L21.9576 56.0986L22.3076 53.9186L21.9076 55.2386Z" fill="#1D1D1B"/>
<path d="M26.2476 54.6586C25.3776 51.1786 24.7376 55.4286 23.7976 54.2886L23.5576 53.5086L23.6276 56.3686C24.4776 55.7986 25.4576 53.7586 26.2476 54.6586Z" fill="#1D1D1B"/>
<path d="M29.4476 62.0486C29.1576 60.6886 29.7976 60.8086 28.8776 61.6786C28.929 61.7887 28.9725 61.9023 29.0076 62.0186C29.1536 61.9802 29.3082 61.9907 29.4476 62.0486V62.0486Z" fill="#1D1D1B"/>
<path d="M29.0076 62.0186C28.5876 62.1686 29.4276 63.1486 29.0076 62.0186V62.0186Z" fill="#1D1D1B"/>
<path d="M30.9676 61.0086L30.5076 62.2986C30.7176 63.0986 31.2576 63.2286 31.1176 63.8486C31.6476 63.1086 31.4476 62.3086 30.9676 61.0086Z" fill="#1D1D1B"/>
<path d="M31.2776 58.3687L31.0176 58.9187C31.1076 59.2487 31.1976 59.3687 31.2776 58.3687Z" fill="#1D1D1B"/>
<path d="M30.4776 60.0786L31.0176 58.9086C30.8776 58.3486 30.7476 57.1986 30.7576 59.3386C30.7076 58.2786 30.6776 59.2986 30.4776 60.0786Z" fill="#1D1D1B"/>
<path d="M30.0476 59.5686C29.7477 59.2429 29.5478 58.8379 29.4715 58.4018C29.3953 57.9656 29.446 57.5168 29.6176 57.1086C28.5276 57.7186 28.9876 60.1986 30.0476 59.5686Z" fill="#1D1D1B"/>
<path d="M26.0076 50.9686L25.4176 49.9686L25.1676 51.2086C25.2876 50.6186 26.1876 52.0686 26.0076 50.9686Z" fill="#1D1D1B"/>
<path d="M34.8076 62.5086C34.8076 61.7486 34.4476 60.5086 34.3176 59.5086L33.9476 60.4086C34.4151 61.0202 34.7118 61.7448 34.8076 62.5086Z" fill="#1D1D1B"/>
<path d="M34.3176 59.5486L34.8776 58.1886C34.2776 58.0886 34.2176 58.7186 34.3176 59.5486Z" fill="#1D1D1B"/>
<path d="M30.9976 54.3986L30.1676 57.2386L31.2076 54.3486L30.9976 54.3986Z" fill="#1D1D1B"/>
<path d="M37.3276 62.4186L37.0676 64.1986L37.5576 61.5086L37.3276 62.4186Z" fill="#1D1D1B"/>
<path d="M38.9876 62.0086C38.7976 63.4786 39.5176 64.4486 39.2776 65.3586C39.7176 65.0686 40.0276 63.7986 40.2776 62.6586C39.9776 63.2986 39.5776 63.1686 38.9876 62.0086Z" fill="#1D1D1B"/>
<path d="M40.8276 60.9886C40.617 61.5321 40.4466 62.0903 40.3176 62.6586C40.5705 62.1307 40.7424 61.5678 40.8276 60.9886V60.9886Z" fill="#1D1D1B"/>
<path d="M36.1076 58.4886C36.1863 59.2345 36.4177 59.9562 36.7876 60.6087L36.3676 58.4986L36.1076 58.4886Z" fill="#1D1D1B"/>
<path d="M36.3076 58.4286V58.4986C36.5027 58.5108 36.6965 58.5376 36.8876 58.5786L36.3076 58.4286Z" fill="#1D1D1B"/>
<path d="M35.9876 58.4786H36.1076C36.0176 58.2786 35.9876 58.2086 35.9876 58.4786Z" fill="#1D1D1B"/>
<path d="M32.9476 56.1686C33.2376 54.9386 33.9476 53.5986 33.0076 51.8486C32.8376 53.3686 33.3876 54.3686 32.9476 56.1686Z" fill="#1D1D1B"/>
<path d="M35.4576 55.8387L34.6976 55.3687C34.8381 56.0255 34.8752 56.7003 34.8076 57.3687L35.4576 55.8387Z" fill="#1D1D1B"/>
<path d="M35.7676 55.1386L35.4576 55.8386L35.7376 55.9986L35.7676 55.1386Z" fill="#1D1D1B"/>
<path d="M39.4876 59.0586C39.7476 58.1086 40.0776 58.0586 40.4876 57.8486C40.3243 57.6715 40.1265 57.5296 39.9064 57.4316C39.6863 57.3336 39.4485 57.2815 39.2076 57.2786C39.1576 57.9486 39.1076 59.1586 39.4876 59.0586Z" fill="#1D1D1B"/>
<path d="M37.9276 58.5586L37.9876 58.4386C37.9376 58.2586 37.8976 58.1986 37.9276 58.5586Z" fill="#1D1D1B"/>
<path d="M44.2876 57.6786L44.2076 57.2886V57.6586L44.2876 57.6786Z" fill="#1D1D1B"/>
<path d="M39.1076 56.8786C38.7676 56.4886 38.6176 57.0186 38.4776 57.6886C38.6619 57.4715 38.9168 57.3263 39.1976 57.2786C39.1876 56.9686 39.1776 56.7686 39.1076 56.8786Z" fill="#1D1D1B"/>
<path d="M41.8276 59.9386C41.6635 59.5394 41.4662 59.1548 41.2376 58.7886C41.4276 59.4586 41.8076 60.4986 41.8276 59.9386Z" fill="#1D1D1B"/>
<path d="M38.1076 59.0186C38.1116 59.0518 38.1116 59.0854 38.1076 59.1186C38.2176 59.5686 38.1976 59.3686 38.1076 59.0186Z" fill="#1D1D1B"/>
<path d="M38.1076 59.0186C38.2551 58.5854 38.3655 58.1405 38.4376 57.6886C38.2306 57.9033 38.0705 58.1587 37.9676 58.4386C38.027 58.6286 38.0738 58.8224 38.1076 59.0186V59.0186Z" fill="#1D1D1B"/>
<path d="M44.9076 43.9186C44.9076 45.9186 44.1476 47.7686 43.3276 45.6786C42.6676 47.1886 43.4376 53.6786 44.2076 57.2886C44.1146 56.293 44.3348 55.2931 44.8376 54.4286C44.5376 53.3686 43.1076 51.9686 43.6476 50.1586C44.5776 49.0986 44.4776 50.8186 44.9876 51.8486C44.4876 49.3986 46.0976 48.2086 45.7376 44.5986L44.9276 45.8986C44.8876 45.3686 45.1676 44.4286 44.9076 43.9186Z" fill="#1D1D1B"/>
<path d="M42.8176 57.1486L42.5376 57.4086C43.0808 58.21 43.4708 59.1051 43.6876 60.0486C44.0421 59.3024 44.2201 58.4846 44.2076 57.6586L42.7376 57.4486L42.8176 57.1486Z" fill="#1D1D1B"/>
<path d="M41.2076 57.4887C41.3276 55.3187 41.9976 54.3687 41.4476 52.0587C40.5676 52.2587 40.9176 53.8887 40.4476 54.8487C41.8276 54.2487 40.1076 56.0687 41.1876 57.2387C41.0148 57.5139 40.7592 57.7275 40.4576 57.8487C40.7546 58.1293 41.0165 58.445 41.2376 58.7887V58.6587C41.1676 58.3987 41.1376 58.2387 41.2376 58.3887C41.2338 58.3722 41.2338 58.3551 41.2376 58.3387C41.2376 58.0387 41.2376 57.7787 41.2376 57.5287C41.6676 57.9487 41.3276 58.0787 41.2376 58.3387V58.6887L42.5376 57.3687C42.2276 57.1287 41.8576 57.2087 41.2076 57.4887Z" fill="#1D1D1B"/>
<path d="M33.3876 47.1686C33.4361 47.3276 33.463 47.4925 33.4676 47.6586C33.5376 47.3686 33.5576 47.2086 33.3876 47.1686Z" fill="#1D1D1B"/>
<path d="M34.1076 48.3686C34.0276 48.6786 34.0076 49.5486 33.6576 49.3686C33.3076 48.7486 33.5676 48.3686 33.4976 47.6286C33.3025 48.0376 33.2131 48.489 33.2376 48.9414C33.2621 49.3939 33.3996 49.833 33.6376 50.2186L33.7076 49.9186C34.4419 51.0132 34.9486 52.2442 35.1976 53.5386C34.9454 51.7937 34.5813 50.0668 34.1076 48.3686Z" fill="#1D1D1B"/>
<path d="M37.6976 52.3686L38.8176 51.2386L38.1076 49.4186L38.1976 50.5386C37.4976 50.1386 37.7276 51.5086 37.6976 52.3686Z" fill="#1D1D1B"/>
<path d="M44.4676 58.7386L44.4076 61.0186L44.9476 57.7786L44.4676 58.7386Z" fill="#1D1D1B"/>
<path d="M45.9876 58.4086L46.0076 60.3886L46.3676 59.1786L45.9876 58.4086Z" fill="#1D1D1B"/>
<path d="M133.108 28.7486L133.398 28.1586C133.258 28.3311 133.159 28.5327 133.108 28.7486V28.7486Z" fill="#1D1D1B"/>
<path d="M130.538 28.8586V29.8586C130.638 29.2886 130.648 28.8886 130.538 28.8586Z" fill="#1D1D1B"/>
<path d="M84.7976 56.6786C85.4176 58.4986 86.1576 61.3287 85.9776 59.1087L85.6976 56.9487C85.3576 57.3687 85.1076 57.1286 84.7976 56.6786Z" fill="#1D1D1B"/>
<path d="M110.548 42.0686L110.348 41.4186C110.278 42.1686 110.208 42.8686 110.148 43.5086L110.548 42.0686Z" fill="#1D1D1B"/>
<path d="M110.238 33.0886L111.028 34.4286C110.832 33.9451 110.566 33.4935 110.238 33.0886V33.0886Z" fill="#1D1D1B"/>
<path d="M138.878 25.8686C138.428 25.1786 137.968 24.4786 137.488 23.7886C137.897 24.5166 138.362 25.212 138.878 25.8686V25.8686Z" fill="#1D1D1B"/>
<path d="M62.0176 57.0886C62.4976 57.9186 62.8676 58.2586 63.1876 58.3586C62.5976 57.1286 62.1076 55.2786 62.0176 57.0886Z" fill="#1D1D1B"/>
<path d="M134.228 51.7686C134.404 51.342 134.466 50.8766 134.408 50.4186C134.198 50.8357 134.134 51.3112 134.228 51.7686V51.7686Z" fill="#1D1D1B"/>
<path d="M64.4976 58.2986C64.4076 58.0886 64.3276 57.9786 64.2376 57.7986C63.9176 58.1786 63.5976 58.4786 63.1876 58.3586C63.6276 59.2686 64.1076 59.8186 64.4976 58.2986Z" fill="#1D1D1B"/>
<path d="M165.798 9.79859C165.858 9.87859 165.928 9.90859 165.988 10.0086C165.928 9.72859 165.868 9.72859 165.798 9.79859Z" fill="#1D1D1B"/>
<path d="M184.748 28.3687C184.605 28.5021 184.422 28.5832 184.228 28.5987C184.348 28.7187 184.508 28.6887 184.748 28.3687Z" fill="#1D1D1B"/>
<path d="M52.2376 59.1386C51.9176 59.2886 52.2376 59.3786 52.2376 59.1386V59.1386Z" fill="#1D1D1B"/>
<path d="M50.3576 50.6187C50.4436 50.2723 50.4773 49.915 50.4576 49.5587C50.4655 49.9147 50.4319 50.2704 50.3576 50.6187Z" fill="#1D1D1B"/>
<path d="M67.3376 44.6886C67.2476 44.2686 67.2676 44.3686 67.3376 44.6886V44.6886Z" fill="#1D1D1B"/>
<path d="M51.7176 58.1686C51.827 58.4023 51.9759 58.6154 52.1576 58.7986C52.0429 58.568 51.8947 58.3557 51.7176 58.1686V58.1686Z" fill="#1D1D1B"/>
<path d="M51.8076 59.1886C51.7148 59.1165 51.618 59.0497 51.5176 58.9886C51.4876 59.3686 51.5276 59.5786 51.8076 59.1886Z" fill="#1D1D1B"/>
<path d="M52.6976 59.0086C52.5974 59.0186 52.4963 59.0047 52.4025 58.9683C52.3086 58.9318 52.2247 58.8737 52.1576 58.7986C52.2192 58.9008 52.2472 59.0197 52.2376 59.1386C52.3875 59.0839 52.5412 59.0404 52.6976 59.0086Z" fill="#1D1D1B"/>
<path d="M151.878 29.8086L152.098 29.9286C150.748 29.2086 151.018 29.3686 151.878 29.8086Z" fill="#1D1D1B"/>
<path d="M92.2276 33.6986C92.2276 33.6986 92.2276 33.7786 92.2276 33.8086L92.2876 33.8786L92.2276 33.6986Z" fill="#1D1D1B"/>
<path d="M93.3076 32.0086C92.9676 34.7386 92.6576 34.4286 92.2476 33.8786L93.0176 40.0986L93.3076 32.0086Z" fill="#1D1D1B"/>
<path d="M118.276 23.9419C117.923 23.119 117.623 22.2961 117.361 21.4732C117.163 19.3536 116.725 17.2634 116.055 15.2427C117.231 19.5923 117.048 19.8274 116.891 20.0756C116.734 20.3237 116.551 20.5589 116.643 24.9999L115.754 23.2104C115.963 23.2757 115.95 22.7533 116.159 22.8316C114.369 18.7302 115.741 29.3625 113.82 28.2262C113.418 27.8606 113.121 27.394 112.96 26.8749C112.799 26.3557 112.781 25.8031 112.906 25.2742L111.717 27.5861C111.285 27.4555 111.246 25.9142 111.717 26.0448L109.652 26.9461V26.6849C109.427 28.2203 109.117 29.7422 108.724 31.2435C108.071 30.0287 108.907 30.2899 108.724 29.1927L107.679 31.4394C106.987 29.1927 107.771 26.8808 108.607 27.142C106.712 18.4167 107.836 29.454 105.001 24.5297L106.007 23.3019C104.844 18.3514 104.138 20.2454 102.622 17.2412C103.054 18.8478 105.824 24.8823 104.739 27.2073C104.321 26.5673 103.825 26.293 103.289 28.1347C103.001 24.9868 102.4 25.8228 101.577 26.071L101.264 21.9042C100.467 23.2104 100.715 25.3003 100.349 27.2204C99.2906 26.8939 98.8071 23.6806 98.3367 20.9899C96.6642 20.4674 99.9047 26.071 98.0492 27.0114C96.5597 25.5354 95.7627 27.3118 94.3384 29.9373C93.2801 28.6311 94.3384 27.3249 93.868 26.2146L93.2931 29.6107C93.0841 29.5454 93.071 28.5266 93.0579 28.0041C92.4569 29.3103 93.3323 32.1708 92.3132 33.3856C92.3132 37.9964 89.4909 26.8547 88.5239 32.1839C88.0928 31.0214 88.524 29.5715 88.2626 28.0172C87.0238 30.3127 86.1426 32.7837 85.6494 35.3449L84.1206 32.7325C85.3227 35.789 84.3558 39.59 83.4934 42.7118C83.9508 44.1877 84.3428 45.4939 84.591 46.1078L83.01 48.472C82.7809 47.1759 82.7809 45.8496 83.01 44.5535C82.9185 44.9061 82.8271 45.2588 82.7617 45.5854C82.03 44.0832 82.1737 41.6668 82.4481 39.3026L83.2713 41.8235C83.5777 39.2224 83.6302 36.5977 83.4281 33.9864C83.3614 34.4472 83.1616 34.8785 82.8532 35.2273C82.9328 34.6554 82.9328 34.0751 82.8532 33.5032C82.7617 33.0721 82.6572 33.9995 82.4481 35.0836L81.7034 30.4728V32.3276L79.2208 29.5846C77.9141 34.3783 76.9995 41.3403 74.53 43.4563C74.935 40.008 74.2817 37.8919 74.0465 33.8428C75.0396 38.0748 75.915 31.8965 77.3131 32.6672C76.5814 32.2623 76.6075 30.3291 76.7382 29.6499L74.6214 33.6991C74.4385 30.3944 73.942 31.2565 73.2234 29.9373C74.1511 36.4682 71.7469 34.4044 70.9106 36.4682C70.7016 34.2869 70.78 32.0272 71.9951 32.4713C70.3618 27.6514 70.8192 40.3084 69.2643 36.1678C69.5517 36.0894 69.7216 36.4159 69.7608 35.3057C69.212 37.2911 67.4611 35.8673 67.7225 33.9211L68.0099 33.8558C66.0369 33.2158 62.1562 34.1824 62.2085 39.7467C62.2085 39.0283 62.0517 33.046 62.104 31.9096L59.8174 50.7187C59.8174 45.938 58.0142 34.6657 59.4384 31.8835C58.9419 31.2304 58.3409 30.4728 57.4654 32.21C57.8182 32.8631 58.6545 39.0544 58.2494 39.5116C56.7729 34.2869 57.2694 36.7164 55.6362 32.2753C56.1588 33.268 56.0673 40.7786 55.3095 40.5696C55.3095 39.4463 54.8261 33.2027 55.0482 32.419L53.624 39.8512C54.0159 38.545 53.3626 33.6338 52.8269 31.5831C53.1013 33.0068 51.2328 31.5831 50.7886 32.2884L51.5987 33.9211C49.4558 32.9284 50.0961 44.3706 47.9924 44.0702C48.1753 42.542 48.1231 34.7179 47.0255 33.8428C46.7511 37.6176 45.8234 52.0249 44.1117 55.003L43.6544 52.9L42.3478 55.4209C42.9619 49.726 44.8304 37.696 45.9279 33.0068C45.0525 31.3479 45.5751 30.4859 44.4253 30.734C44.204 30.1815 44.1632 29.5731 44.3088 28.996C44.4543 28.4189 44.7786 27.9025 45.2354 27.5208L42.4784 26.3583C42.8051 30.734 40.623 30.8516 40.8974 34.5089L43.6544 29.8067C43.9941 34.1824 42.5699 42.346 40.5969 41.6668C40.022 39.9426 40.5969 33.8297 40.4793 32.3798C40.3094 33.9081 38.7938 35.3449 38.5716 34.2869L39.2772 31.9096C38.1274 30.303 37.8007 37.8005 36.3242 33.673C35.8669 33.4117 34.7432 28.0825 34.7824 30.6818C35.86 38.712 36.3491 46.8101 36.2458 54.9115C34.9592 52.6408 33.8917 50.2527 33.0577 47.7798C32.1561 43.8612 33.7632 38.3752 33.0577 35.0314C33.0431 36.109 32.8894 37.1802 32.6003 38.2185C32.0908 37.2127 32.6003 34.4959 31.6465 35.0706C31.6465 39.5247 29.569 34.7832 31.3198 38.8585C30.3791 40.1647 30.2223 37.9834 29.0725 38.2185C29.5559 41.079 28.4061 48.041 27.4522 49.3472C27.4208 48.2534 27.2896 47.1647 27.0602 46.0948C24.9958 45.7682 23.8198 43.7959 21.9121 43.822C21.7031 42.7509 20.7362 41.4709 21.0628 39.5508C20.8146 40.3476 20.6186 41.8627 20.0306 41.9803C18.724 38.1793 21.3372 41.3403 20.2919 36.7556C20.2919 39.3679 18.9069 40.3737 18.1229 41.9803C18.5149 45.9772 20.0829 42.6856 20.8668 41.0398C21.0628 46.5519 19.7954 52.3645 17.8747 54.9899C16.3328 56.4006 17.0776 51.4501 16.8163 52.2469C13.8111 51.3848 14.5689 61.9388 11.9687 58.0464C10.8842 54.5589 11.7205 51.0583 11.4199 48.5373C12.7266 47.1658 13.4713 50.7056 14.3468 50.5358L13.21 48.9161C13.5889 47.7275 14.4252 46.8262 14.9217 47.8189C14.007 44.6972 9.87811 47.3748 7.48698 44.5274C6.89468 45.7102 6.66728 47.0422 6.83367 48.3545L7.53925 47.8451C8.29709 50.6534 6.29795 51.7636 7.25179 53.0698C6.33715 55.0944 5.35718 58.2945 3.94603 56.6879L3.55404 52.691C3.55404 53.8666 4.52094 55.0552 4.86067 53.8274C4.35108 55.6169 2.58714 48.472 2.12982 53.736L3.18818 56.4789C2.27354 58.5166 1.24131 62.8009 1.52588e-05 61.5861C0.692527 65.5047 0.26134 61.129 1.30664 65.7267C0.352804 59.9926 4.36415 65.8573 2.97912 59.8489C3.93296 65.2696 4.45561 62.1217 5.76224 66.6672C5.68384 65.361 5.27878 64.1593 6.31102 64.7732C6.31102 64.3944 6.44168 63.8981 6.49395 63.6107C6.49395 63.6107 6.49395 63.6107 6.57234 63.7021V63.5454C6.57234 63.3103 6.57234 63.3495 6.57234 63.5454C6.28649 62.9146 6.09287 62.2459 5.99743 61.56C6.40248 58.5035 8.0227 58.5558 8.51922 56.9753C9.1464 57.5761 8.31016 58.4905 8.68908 59.8881L9.32933 57.4325C9.49919 60.3583 11.0802 62.2523 9.70825 63.9634L11.0149 64.0548C11.8119 65.6745 12.8834 66.3015 13.4844 65.0475C14.1246 65.6614 14.9348 61.7559 14.4774 64.0679L16.4504 62.1739V62.9184C18.4757 63.2189 20.3703 57.9157 22.8921 63.1274C23.5454 62.3698 24.1987 61.4424 25.3747 62.2262L25.6883 64.7602C26.5245 63.8328 28.393 67.1897 28.6674 64.5381C29.8695 71.3172 32.9401 65.8443 34.5211 66.9937L34.508 63.7805C35.5664 63.9111 36.5333 62.9315 37.7746 61.5469L37.5655 58.6211C38.5716 56.1655 40.5446 60.5804 42.3086 60.1885C42.3086 61.3118 41.7729 61.0506 41.4201 60.3844C43.8635 66.9154 45.6535 55.3556 47.8225 60.071C48.2407 58.9868 48.6065 59.3264 48.9854 60.071C48.9854 60.071 48.9462 60.1232 48.8678 60.2277C48.9348 60.2553 49.0099 60.2553 49.0769 60.2277C49.3121 60.724 49.5604 61.2988 49.8217 61.7559C49.6676 61.2195 49.4528 60.7024 49.1814 60.2146C49.7812 59.9832 50.2806 59.5487 50.5926 58.9868L50.9976 62.1086C50.9976 62.1086 51.076 62.1086 51.1152 62.0172C51.7163 63.1405 51.468 60.502 51.1152 58.1639C51.3998 57.542 51.6103 56.8887 51.7424 56.2177C52.448 61.2726 53.049 54.4413 53.9767 59.8097C54.1989 57.1973 56.59 57.6676 56.59 52.1032C56.59 52.8347 56.8252 53.1612 56.59 53.2265C57.2303 53.8274 57.8966 54.4152 58.3409 52.8216L58.8243 56.8055L59.8435 51.3587C60.9053 53.4953 61.1739 55.9393 60.6013 58.2554C62.2608 53.4094 62.0778 56.3744 63.4367 51.5938L63.5151 54.2062C64.1031 54.0756 64.8217 50.5619 65.3183 52.6649C66.9516 57.4978 71.8514 52.9261 75.5883 57.2496C74.3993 49.6998 77.4046 60.5542 77.1302 54.6372C77.4438 56.4136 77.9925 57.3933 77.5483 58.9999C79.1554 57.1059 80.3575 61.6122 81.2068 56.6096C81.5335 58.386 81.0239 59.2219 81.2068 60.3191C81.3244 59.9142 81.6511 58.7125 81.8993 59.7705C82.1476 60.8285 81.6903 61.351 81.5466 62.1086C83.2974 61.6645 83.0753 56.1263 82.8532 50.9146C83.9246 53.318 84.3558 52.9392 84.7478 49.4778C85.179 51.1628 85.8323 52.9 84.7478 53.5923C85.375 53.8013 88.6677 55.7867 88.4456 51.6199C88.7199 52.6649 89.3341 51.8681 89.4647 51.3718C90.8628 51.5154 91.0065 51.8812 92.3393 51.3718L91.9081 50.7317C92.0518 45.6637 92.9534 49.517 93.9987 48.8247V49.3472C96.808 52.7694 94.9395 47.5185 97.7618 51.4501L97.3698 48.3414C97.0301 41.6015 99.8916 52.1163 101.107 49.4255L100.44 47.6883C101.028 45.3241 103.406 56.6357 104.282 57.4063C104.504 57.968 104.086 58.3599 103.89 58.817C106.307 62.5919 103.798 54.7025 105.196 53.5923C105.667 55.7736 105.314 59.235 106.399 59.5485C107.078 61.2857 108.777 52.1163 110.567 56.2177C110.096 54.5458 109.639 52.8869 110.24 51.5416C111.272 50.8362 113.794 57.6937 114.291 52.2469C114.458 52.6647 114.564 53.1048 114.604 53.5531C115.323 52.1032 117.113 51.006 117.348 48.0541C117.792 50.6664 118.315 51.7114 118.851 51.8289C119.151 51.8289 119.334 51.7375 119.739 51.4632C120.161 51.1504 120.551 50.7959 120.902 50.4052C122.392 48.8378 123.411 47.192 124.574 52.0902L128.193 51.1758L128.428 52.1685C131.146 52.5604 131.12 50.157 130.833 47.7798C131.401 48.3201 131.765 49.0397 131.865 49.8174C136.15 51.3979 136.752 50.9015 136.346 45.8988L138.646 48.9031C138.437 47.9757 140.423 49.0337 142.762 49.8043C145.101 50.575 147.832 51.1105 147.989 49.1643C148.357 49.563 148.645 50.0286 148.838 50.5358C149.034 49.5562 150.144 49.517 151.686 49.8174C153.228 50.1178 155.201 50.7709 156.913 51.202C160.323 52.064 162.688 52.0379 156.717 46.8001C156.448 45.8416 156.111 44.9032 155.711 43.9918C153.898 43.6816 152.247 42.7596 151.033 41.3794C149.759 40.0186 148.288 38.8563 146.669 37.9311C146.669 37.5784 148.341 38.2838 149.988 39.1459C151.634 40.008 153.241 41.0529 152.967 41.3925L152.052 40.8962C155.502 43.5869 157.056 43.9526 158.415 44.0963C160.311 44.1431 162.141 44.7928 163.642 45.9511C165.372 45.7027 167.122 45.6196 168.868 45.7029C169.848 45.7029 170.881 45.7813 171.952 45.8466L173.585 45.9511C173.977 45.9511 173.807 45.9511 173.873 45.9511L174.33 46.1993L166.033 41.7713L165.719 41.6015L172.409 45.1804C174.748 46.4866 173.572 45.7944 171.495 44.6841L165.471 41.4709L176.159 47.1789L175.192 46.6695L174.213 46.134L166.046 41.7844L171.887 44.9061C172.566 45.2588 172.841 45.4025 171.978 44.9061L172.096 44.9715L164.687 41.0529L155.815 36.3115C159.03 38.0226 160.676 38.9238 161.551 39.3549C162.427 39.7859 162.57 39.6292 163.616 39.0544C164.411 38.6554 165.227 38.2979 166.059 37.9834L166.882 37.696L167.314 37.5523H167.418H167.483L166.817 37.278L161.512 35.0836L151.059 30.7863L148.446 29.7283C149.922 30.4989 134.922 22.7924 141.286 26.0579H141.364L141.651 26.2408C142.507 26.9415 143.259 27.7594 143.886 28.6703C144.147 29.0491 144.487 29.5454 144.774 29.9765C144.957 30.2508 145.127 30.5251 145.284 30.8124L145.61 31.3741C145.48 31.0214 145.336 30.8124 145.61 30.5381C146.015 30.0805 146.582 29.7992 147.191 29.7544C146.577 29.1797 144.578 25.4309 145.885 25.4048C149.151 33.5293 149.347 28.0172 152.614 33.477C150.275 29.9242 155.018 31.361 151.673 26.3322C152.797 26.6457 152.98 29.3495 154.286 31.0214C154.665 29.0621 155.985 29.1405 157.422 29.5193C158.86 29.8981 160.415 30.5642 161.46 29.6238C160.814 28.2116 160.408 26.702 160.258 25.1566C161.277 26.8547 162.283 28.5527 163.25 30.2638C163.563 29.5846 161.865 23.7329 163.877 27.338C163.485 26.4367 162.897 25.0913 163.145 24.6472C166.412 26.6196 168.646 24.9346 171.194 23.8896C173.742 22.8447 176.538 22.5051 179.674 27.4425C178.733 25.3134 179.165 25.0391 179.674 24.8954C179.269 24.4121 179.374 22.074 179.125 20.5327C180.04 21.8389 180.929 23.2496 181.739 24.6211C181.739 20.2584 184.051 24.1378 183.999 20.0103L183.346 20.794C183.52 18.1031 183.224 15.4024 182.47 12.8132C181.676 9.93113 181.134 6.98547 180.85 4.0095C180.458 6.83086 179.544 4.84546 178.394 3.1866C177.244 1.52775 176.055 0.234626 175.532 4.2838C174.918 3.06905 175.663 2.24615 175.245 0.82241C175.049 3.55234 174.526 4.19237 173.193 3.16048V2.49433C170.031 3.61765 168.215 1.25345 164.047 0.312998L164.975 3.27804C164.099 3.04292 163.733 2.14166 163.185 1.46244C163.302 6.24308 165.458 1.24039 165.719 6.47819C164.57 3.51315 163.106 3.76133 161.8 3.97032C160.493 4.1793 159.095 4.27074 157.814 0.913843C156.573 1.21427 159.121 4.2838 157.88 4.57116L157.043 2.78169L157.409 5.2765C156.521 5.08057 155.449 2.88618 154.966 1.35795C155.214 1.48856 155.384 0.757101 155.567 0.561173C153.868 -1.31973 152.823 2.18084 152.261 1.58L153.79 2.36371C152.392 3.66989 150.523 4.14012 148.759 4.85852C147.78 5.16831 146.887 5.70471 146.154 6.42416C145.42 7.14361 144.867 8.02581 144.539 8.99913L145.31 10.3053C144.003 13.7536 142.867 9.54772 140.854 11.8074V11.4548C140.946 13.0091 140.593 13.9496 139.861 14.0671C139.77 12.2254 137.248 11.6115 137.248 9.50854C135.941 13.4271 137.248 11.9772 137.353 18.0771C136.729 17.5064 136.075 16.9701 135.393 16.4705C135.458 17.7767 135.706 18.6126 135.693 19.4747C135.587 20.6652 135.273 21.8278 134.765 22.91C134.648 22.0218 134.439 21.4863 133.995 21.2511C133.483 21.0167 132.904 20.9704 132.361 21.1205C131.784 21.277 131.171 21.2309 130.623 20.9899C130.324 20.8375 130.095 20.5755 129.983 20.2584C129.848 19.6431 129.848 19.0059 129.983 18.3906C129.293 18.897 128.658 19.475 128.089 20.1148C127.984 20.2062 127.84 20.4282 127.801 20.4152H127.657H127.435C127.2 20.4152 127.161 20.5589 127.252 20.7156C127.683 21.1812 128.186 21.5738 128.742 21.8781C129.983 22.6749 131.12 23.3018 127.435 21.3687C131.068 23.3149 131.773 23.6937 131.669 23.6153C131.564 23.537 130.898 23.0537 131.669 23.55C132.44 24.0464 133.864 24.7125 134.988 25.3656L137.039 26.5412L130.049 22.8055L129.853 22.701L136.608 26.3061L134.086 24.9999L139.77 28.0302L142.083 29.2711L137.274 26.6587C135.576 25.7575 139.195 27.6906 137.431 26.7502L129.278 22.4006L130.205 22.8969C131.015 23.328 131.225 23.4325 127.592 21.4601L135.04 25.444L130.676 23.119L133.877 24.7778L127.893 21.5907C130.506 22.9753 129.657 22.5181 128.415 21.865L127.109 21.1858L135.549 25.6922C143.089 29.7413 124.574 19.5531 125.972 20.8593C127.778 21.6458 129.525 22.5626 131.198 23.6023C129.245 22.7569 127.339 21.8063 125.488 20.7548C126.329 21.4635 127.256 22.0646 128.245 22.5443C129.683 23.3541 131.46 24.2815 132.623 25.1566C126.965 21.9695 134.387 26.5281 135.432 27.6384L131.198 24.8954C127.501 23.2627 139.509 30.6165 135.118 28.6441C133.485 27.338 131.812 26.0318 130.075 24.7256C130.401 25.0652 130.702 25.4179 130.989 25.7705L126.651 22.6226C129.5 24.9999 128.363 24.4252 126.795 23.5892C129.408 25.5354 133.224 28.6572 132.649 28.8139C130.218 27.1943 129.617 26.1232 129.33 26.6065C127.488 24.817 124.9 22.5965 128.337 25.1566C127.239 24.2292 126.299 23.3802 125.188 22.479C122.575 20.585 124.09 22.1002 123.881 22.1524C124.219 22.3277 124.535 22.5425 124.822 22.7924C126.04 24.0667 127.179 25.4146 128.232 26.8285C127.222 25.9743 126.279 25.0442 125.41 24.0464C125.567 24.3729 126.795 25.7052 126.717 25.9795C124.469 23.6415 122.091 21.225 121.163 20.1148C121.884 20.9427 122.552 21.8152 123.163 22.7271C122.13 21.7083 120.301 19.945 119.582 19.0698C118.864 18.1947 119.792 19.54 120.484 20.6634C121.177 21.7867 121.686 22.8577 120.811 21.9695C121.086 22.3779 121.314 22.8161 121.49 23.2757C120.92 22.8231 120.382 22.3298 119.883 21.7997C119.439 21.4209 119.36 21.5124 119.883 23.2235C119.073 21.7736 118.328 20.3107 117.636 18.8347C118.032 19.9955 118.513 21.1262 119.073 22.2177C119.765 23.6806 120.562 25.235 120.38 26.1363C120.21 27.6253 118.72 22.3614 118.106 21.1336C118.469 22.414 118.71 23.7261 118.825 25.0521C118.825 26.0579 118.55 26.3583 117.897 24.5166C117.91 23.6415 118.132 24.2946 118.276 23.9419ZM104.726 27.2465C104.974 26.5542 105.432 24.4644 105.824 26.3061C105.784 29.9242 105.353 28.2262 104.726 27.2465ZM80.5666 36.8078C80.7234 35.7498 81.1284 36.2331 81.625 37.3956C81.3506 37.6699 80.9978 37.5784 80.5666 36.8078ZM11.9295 62.2653V62.1086C12.7135 63.3103 12.4522 62.8401 11.9295 62.2653ZM10.4138 60.9592C10.3116 61.3886 10.3116 61.8359 10.4138 62.2653C10.4922 61.4555 10.8189 61.3902 11.1978 61.6123C10.9887 60.7894 10.8319 60.2277 10.4138 60.9461V60.9592ZM169.456 43.7698L167.954 42.9599C165.837 41.8366 167.562 42.7509 169.456 43.7698Z" fill="#0F3460"/>
<path d="M110.268 34.1287C110.362 34.5572 110.429 34.9914 110.468 35.4287C110.549 34.9852 110.479 34.5271 110.268 34.1287V34.1287Z" fill="#1D1D1B"/>
<path d="M139.108 26.2586L138.828 25.8486L139.108 26.2586Z" fill="#1D1D1B"/>
<path d="M71.4276 34.9987C71.6777 35.3659 71.848 35.7815 71.9276 36.2187C71.9176 35.6287 71.7876 35.1387 71.4276 34.9987Z" fill="#1D1D1B"/>
<path d="M48.8676 60.3686L49.5576 59.7186C49.2176 59.8486 49.0776 59.3286 48.8976 58.9486C48.9276 59.4786 49.1076 60.2886 48.8676 60.3686Z" fill="#1D1D1B"/>
<path d="M42.1076 45.6686C42.0176 45.9686 41.8876 45.6686 41.7976 46.0186L41.8776 47.1386C42.0051 47.0709 42.1151 46.9744 42.1988 46.8568C42.2825 46.7392 42.3377 46.6038 42.3601 46.4611C42.3824 46.3185 42.3712 46.1726 42.3274 46.0351C42.2835 45.8975 42.2083 45.7721 42.1076 45.6686V45.6686Z" fill="#1D1D1B"/>
<path d="M47.9276 52.3686C47.8076 50.3686 47.3776 51.0486 46.9276 51.4386C46.9276 51.4386 46.9876 51.4386 47.0176 51.4386C46.9376 54.2586 47.4276 53.2986 47.9276 52.3686Z" fill="#1D1D1B"/>
<path d="M46.7776 51.4987C46.7164 51.5544 46.64 51.5907 46.5582 51.6032C46.4763 51.6156 46.3926 51.6036 46.3176 51.5687C46.2976 52.6987 46.5076 51.7987 46.7776 51.4987Z" fill="#1D1D1B"/>
<path d="M53.2776 57.4387C53.0276 56.9287 53.2076 60.0387 53.0476 59.2187C52.8576 61.8087 54.5576 56.0487 53.2776 57.4387Z" fill="#1D1D1B"/>
<path d="M47.2876 45.6786L47.5576 48.1786L47.7676 46.1486L47.2876 45.6786Z" fill="#1D1D1B"/>
<path d="M51.3476 47.3686L50.5176 46.6986C50.5491 46.9983 50.4825 47.3001 50.3276 47.5586C50.8276 47.6486 51.3876 48.1286 51.3476 47.3686Z" fill="#1D1D1B"/>
<path d="M50.3276 47.5786C50.2565 47.5627 50.1828 47.5617 50.1113 47.5755C50.0397 47.5894 49.9718 47.6178 49.9117 47.6591C49.8516 47.7004 49.8007 47.7537 49.7622 47.8155C49.7236 47.8774 49.6982 47.9465 49.6876 48.0186C49.8183 47.9917 49.9422 47.9389 50.0521 47.8633C50.162 47.7877 50.2557 47.6909 50.3276 47.5786Z" fill="#1D1D1B"/>
<path d="M48.3676 44.8986L48.6276 45.4086L49.2076 45.5686L48.3676 44.8986Z" fill="#1D1D1B"/>
<path d="M60.1076 47.5986L60.9776 46.8586C61.0376 45.9886 60.7776 45.4786 60.4576 45.8586C60.2276 46.4386 59.9076 46.7786 60.1076 47.5986Z" fill="#1D1D1B"/>
<path d="M57.1876 40.8287C57.4103 41.442 57.558 42.0799 57.6276 42.7287L57.5576 39.6187L57.1876 40.8287Z" fill="#1D1D1B"/>
<path d="M59.7276 40.0286C59.7876 39.1586 60.9276 37.5086 59.8176 37.7386C59.7576 38.5986 58.8976 39.3686 59.7276 40.0286Z" fill="#1D1D1B"/>
<path d="M73.1576 43.4386L72.9376 43.4886L73.1876 48.5786L73.1576 43.4386Z" fill="#1D1D1B"/>
<path d="M84.2276 30.7086C83.1076 29.5486 84.1076 33.8586 83.1076 32.3686C82.9276 33.5886 83.9376 33.5686 83.7476 34.6186C84.3276 33.3686 84.6976 34.0386 84.2276 30.7086Z" fill="#1D1D1B"/>
<path d="M83.7676 34.6386C83.6597 34.8966 83.5663 35.1603 83.4876 35.4286C83.6231 35.1822 83.7176 34.9154 83.7676 34.6386V34.6386Z" fill="#1D1D1B"/>
<path d="M187.138 30.8886L187.778 31.9086L187.298 30.2286L187.138 30.8886Z" fill="#1D1D1B"/>
<path d="M188.018 27.0486L188.348 30.2786L188.538 27.2786C188.408 27.4786 188.168 27.7686 188.018 27.0486Z" fill="#1D1D1B"/>
<path d="M124.428 23.9086V24.6886C124.608 25.5186 124.768 25.5686 125.088 25.6886L124.428 23.9086Z" fill="#1D1D1B"/>
<path d="M133.628 25.5086L133.468 25.4586L134.038 28.3486L133.628 25.5086Z" fill="#1D1D1B"/>
<path d="M135.698 21.5486C135.698 21.4286 135.858 22.0686 135.798 21.9486C135.618 21.4386 137.108 25.0986 135.698 21.5486Z" fill="#1D1D1B"/>
</svg>
