<svg width="742" height="797" viewBox="0 0 742 797" fill="none" xmlns="http://www.w3.org/2000/svg">
<path d="M497.454 140.261C517.371 168.773 494.017 214.999 523.573 236.443C552.34 257.317 587.681 223.102 614.794 241.07C655.013 267.725 647.662 389.692 588.864 465.472C571.182 488.262 556.404 497.13 549.861 522.903C535.809 578.248 585.195 611.17 575.796 638.541C554.636 700.174 229.183 751.887 98.5997 566.665C37.6088 480.157 28.4852 355.241 82.9755 260.368C181.44 88.9246 452.764 76.2843 497.454 140.261Z" fill="#F4F7FA"/>
<path d="M429.93 527.092C445.183 503.347 433.009 462.266 417.041 437.854C398.392 409.351 382.059 415.007 369.279 391.714C345.483 348.34 392.34 310.939 371.814 265.298C355.034 227.987 317.349 238.821 300.647 196.655C288.593 166.229 302.421 145.956 283.203 122.936C281.56 120.968 263.538 99.9923 240.494 102.714C217.235 105.462 202.47 130.742 197.249 148.403C187.608 181.044 209.17 192.511 211.941 235.407C215.711 293.801 177.975 307.109 189.638 349.531C199.269 384.562 227.233 383.567 237.132 422.62C246.333 458.885 225.57 472.919 234.098 496.724C253.703 551.481 398.8 575.516 429.93 527.092Z" fill="url(#paint0_linear)"/>
<g style="mix-blend-mode:soft-light" opacity="0.7">
<path d="M409.06 564.527C409.156 564.524 409.248 564.486 409.317 564.42C409.387 564.353 409.429 564.264 409.436 564.168C409.444 564.072 409.415 563.977 409.356 563.901C409.298 563.825 409.213 563.773 409.118 563.756C384.456 560.121 361.642 551.487 341.302 538.093C322.037 525.406 302.114 512.288 293.974 489.291C287.817 471.891 292.108 459.45 297.538 443.691C302.821 428.354 309.399 409.271 307.42 379.615C306.288 362.68 304.879 341.608 291.094 321.159C283.059 309.249 275.003 303.958 267.892 299.29C260.438 294.396 254.552 290.529 251.424 280.692C246.326 264.653 250.653 251.227 255.662 235.678C258.756 226.082 261.955 216.159 263.499 204.286C267.843 170.865 253.484 134.15 220.814 95.1545C220.781 95.1143 220.742 95.0809 220.696 95.0564C220.651 95.0318 220.601 95.0165 220.55 95.0113C220.499 95.0062 220.447 95.0114 220.398 95.0265C220.349 95.0417 220.303 95.0665 220.263 95.0996C220.224 95.1326 220.192 95.1732 220.168 95.219C220.144 95.2648 220.13 95.3148 220.126 95.3662C220.122 95.4175 220.128 95.4691 220.145 95.518C220.161 95.5669 220.187 95.612 220.221 95.6508C252.73 134.48 267.033 171.001 262.726 204.185C261.192 215.989 258 225.882 254.924 235.442C249.871 251.124 245.508 264.658 250.683 280.926C253.894 291.023 260.182 295.156 267.463 299.938C274.509 304.566 282.501 309.82 290.449 321.591C304.127 341.868 305.528 362.837 306.655 379.666C308.63 409.166 302.082 428.169 296.821 443.437C291.341 459.334 287.012 471.904 293.259 489.549C301.487 512.791 321.519 525.981 340.89 538.744C361.324 552.201 384.246 560.871 409.019 564.523L409.06 564.527Z" fill="white"/>
</g>
<g style="mix-blend-mode:soft-light" opacity="0.7">
<path d="M296.563 331.806C296.635 331.806 296.706 331.786 296.767 331.748C296.828 331.71 296.877 331.655 296.909 331.591C318.733 287.193 323.304 252.32 323.298 230.881C323.298 207.622 318.03 194.687 317.979 194.558C317.94 194.463 317.864 194.388 317.769 194.349C317.674 194.309 317.568 194.309 317.473 194.349C317.378 194.388 317.303 194.463 317.263 194.558C317.224 194.653 317.224 194.76 317.263 194.855C317.315 194.981 322.522 207.813 322.522 230.945C322.522 252.29 317.96 287.015 296.215 331.269C296.192 331.314 296.179 331.364 296.176 331.414C296.173 331.465 296.179 331.516 296.196 331.564C296.212 331.612 296.238 331.656 296.271 331.694C296.305 331.733 296.346 331.764 296.391 331.786C296.446 331.806 296.505 331.812 296.563 331.806Z" fill="white"/>
</g>
<g style="mix-blend-mode:soft-light" opacity="0.7">
<path d="M306.799 404.103C306.891 404.101 306.98 404.067 307.049 404.006C307.118 403.946 307.163 403.863 307.177 403.772C307.19 403.681 307.171 403.588 307.123 403.51C307.075 403.431 307.001 403.373 306.913 403.344C281.824 395.574 260.423 383.913 243.304 368.684C229.7 356.618 218.594 342 210.616 325.659C196.996 297.786 196.8 273.786 196.8 273.545C196.8 273.442 196.759 273.344 196.686 273.271C196.613 273.199 196.514 273.158 196.412 273.158C196.309 273.159 196.211 273.201 196.139 273.274C196.066 273.346 196.026 273.445 196.025 273.547C196.025 273.788 196.223 297.968 209.922 325.999C217.943 342.431 229.11 357.13 242.79 369.262C259.991 384.566 281.489 396.281 306.685 404.083C306.722 404.096 306.761 404.102 306.799 404.103Z" fill="white"/>
</g>
<g style="mix-blend-mode:soft-light" opacity="0.7">
<path d="M319.676 525.184C319.763 525.184 319.848 525.154 319.917 525.101C339.539 509.552 355.191 492.247 366.437 473.672C375.438 458.803 381.651 443.093 384.912 426.975C390.457 399.518 385.404 380.126 385.342 379.928C385.315 379.829 385.25 379.745 385.161 379.693C385.073 379.642 384.967 379.628 384.868 379.654C384.769 379.681 384.684 379.746 384.633 379.835C384.581 379.923 384.567 380.029 384.594 380.128C384.646 380.319 389.653 399.57 384.134 426.861C379.041 452.045 363.681 489.427 319.431 524.488C319.369 524.539 319.323 524.607 319.301 524.684C319.279 524.761 319.281 524.843 319.308 524.919C319.334 524.995 319.383 525.061 319.448 525.107C319.513 525.154 319.591 525.179 319.672 525.18L319.676 525.184Z" fill="white"/>
</g>
<g style="mix-blend-mode:soft-light" opacity="0.7">
<path d="M262.711 198.842C262.799 198.842 262.884 198.812 262.953 198.757C263.022 198.703 263.07 198.626 263.09 198.54C263.109 198.454 263.098 198.364 263.059 198.285C263.021 198.206 262.956 198.142 262.876 198.105C244.831 189.587 230.008 178.154 218.807 164.124C209.842 152.899 203.164 139.995 198.953 125.767C191.778 101.528 194.304 81.5883 194.33 81.3907C194.337 81.3403 194.333 81.2892 194.32 81.2401C194.307 81.191 194.284 81.145 194.253 81.1047C194.222 81.0645 194.184 81.0306 194.14 81.0052C194.096 80.9799 194.047 80.9634 193.997 80.9567C193.947 80.9501 193.895 80.9535 193.846 80.9666C193.797 80.9798 193.751 81.0024 193.711 81.0334C193.671 81.0643 193.637 81.1028 193.612 81.1468C193.586 81.1908 193.57 81.2394 193.563 81.2897C193.537 81.4895 190.985 101.565 198.201 125.956C202.437 140.285 209.157 153.282 218.18 164.59C229.46 178.721 244.388 190.234 262.537 198.805C262.592 198.829 262.651 198.842 262.711 198.842Z" fill="white"/>
</g>
<path d="M304.842 615.452C310.075 615.007 321.066 609.424 323.332 606.786C338.404 589.239 368.763 558.22 368.39 533.769C368.325 529.593 349.878 524.914 347.436 520.978C336.4 515.141 332.209 513.801 324.449 503.096C301.521 471.495 359.348 416.556 295.854 393.591C249.344 376.77 208.809 391.278 217.071 318.299C225.333 245.321 173.092 109.4 93.5728 157.093C47.9354 184.464 90.2537 248.675 65.4307 293.595C41.8387 336.28 58.7712 373.007 103.979 401.211C149.187 429.415 123.552 448.473 108.275 489.341C89.9251 538.443 166.156 550.607 201.829 553.219C230.552 555.322 302.282 580.066 304.842 615.452Z" fill="url(#paint1_linear)"/>
<path d="M304.842 615.452C310.075 615.007 321.066 609.424 323.332 606.786C338.404 589.239 368.763 558.22 368.39 533.769C368.325 529.593 349.878 524.914 347.436 520.978C336.4 515.141 332.209 513.801 324.449 503.096C301.521 471.495 359.348 416.556 295.854 393.591C249.344 376.77 208.809 391.278 217.071 318.299C225.333 245.321 173.092 109.4 93.5728 157.093C47.9354 184.464 90.2537 248.675 65.4307 293.595C41.8387 336.28 58.7712 373.007 103.979 401.211C149.187 429.415 123.552 448.473 108.275 489.341C89.9251 538.443 166.156 550.607 201.829 553.219C230.552 555.322 302.282 580.066 304.842 615.452Z" fill="url(#paint2_linear)"/>
<g style="mix-blend-mode:soft-light" opacity="0.7">
<g style="mix-blend-mode:soft-light" opacity="0.7">
<path d="M345.118 572.349L345.65 571.369C194.442 489.349 108.282 326.506 115.173 135.769L114.056 135.728C110.791 226.127 129.229 313.571 167.374 388.609C207.477 467.491 268.941 531.03 345.118 572.349Z" fill="#FCFDFE"/>
</g>
<g style="mix-blend-mode:soft-light" opacity="0.7">
<path d="M98.3033 508.875C143.606 496.168 218.326 499.023 264.868 515.242L265.235 514.187C218.511 497.906 143.49 495.04 98.0004 507.798L98.3033 508.875Z" fill="#FCFDFE"/>
</g>
<g style="mix-blend-mode:soft-light" opacity="0.7">
<path d="M315.62 555.909L316.402 555.114C298.142 537.135 289.689 510.621 291.25 476.305C292.398 451.145 298.806 422.453 310.301 391.02L309.253 390.637C297.719 422.169 291.287 450.973 290.133 476.247C288.556 510.898 297.132 537.707 315.62 555.909Z" fill="#FCFDFE"/>
</g>
<g style="mix-blend-mode:soft-light" opacity="0.7">
<path d="M162.375 377.741L163.198 376.987C130.544 341.326 80.9626 330.012 45.1255 326.796L45.0267 327.908C80.6661 331.107 129.964 342.349 162.375 377.741Z" fill="#FCFDFE"/>
</g>
<g style="mix-blend-mode:soft-light" opacity="0.7">
<path d="M126.123 273.154L127.24 273.122C125.672 218.668 158.989 172.197 178.987 149.342L178.147 148.607C158.04 171.585 124.544 218.32 126.123 273.154Z" fill="#FCFDFE"/>
</g>
</g>
<path opacity="0.8" d="M598.993 420.999C596.808 399.806 581.483 374.506 560.583 373.166C551.886 372.607 544.471 376.339 539.564 379.688C541.283 374.848 550.875 346.255 535.409 318.813C519.128 289.921 484.532 279.105 457.428 283.76C444.588 285.964 434.822 291.403 428.672 295.618C428.931 293.786 432.311 267.021 413.34 250.9C395.992 236.159 367.382 236.625 346.843 254.297C342.976 249.82 328.623 234.318 305.491 231.777C280.7 229.044 255.684 242.271 241.306 265.523C230.753 262.458 204.785 256.587 176.783 267.923C140.637 282.563 114.245 320.594 116.306 359.395C117.268 377.484 124.19 391.559 129.337 399.95C123.444 399.825 104.928 400.195 93.1131 413.026C77.0614 430.459 78.5738 465.255 103.141 492.245C96.6083 497.457 85.7725 507.816 83.8176 522.619C80.5544 547.35 104.284 567.902 114.802 577.019C193.159 644.904 347.94 611.991 370.181 607.009C419.698 595.92 405.483 590.669 490.157 566.545C545.435 550.794 578.974 545.202 589.571 519.569C596.933 501.762 590.125 481.788 582.963 467.476C586.6 463.311 601.505 445.332 598.993 420.999Z" fill="white"/>
<path d="M106.02 629.847C102.54 629.868 99.0768 629.361 95.749 628.343C82.5588 624.238 73.3191 611.997 68.2858 591.961C60.9066 562.598 68.462 530.97 90.1335 500.497C106.344 477.704 124.456 463.738 125.219 463.154L129.623 468.911L127.421 466.032L129.623 468.911C129.444 469.046 111.502 482.905 95.9295 504.853C75.3192 533.902 68.3846 562.615 75.3063 590.195C79.6823 607.606 87.2785 618.122 97.8843 621.419C119.76 628.24 148.368 603.443 148.662 603.192L153.444 608.635C152.33 609.623 129.017 629.847 106.02 629.847Z" fill="#97A6B7"/>
<path d="M286.348 425.585C306.878 425.585 323.521 408.942 323.521 388.412C323.521 367.882 306.878 351.239 286.348 351.239C265.818 351.239 249.175 367.882 249.175 388.412C249.175 408.942 265.818 425.585 286.348 425.585Z" fill="url(#paint3_linear)"/>
<g style="mix-blend-mode:overlay" opacity="0.5">
<path d="M287.747 407.259C301.696 406.486 312.378 394.552 311.605 380.603C310.832 366.654 298.898 355.972 284.949 356.745C271 357.517 260.319 369.452 261.091 383.401C261.864 397.35 273.798 408.031 287.747 407.259Z" fill="white"/>
</g>
<path d="M338.969 349.862C341.051 342.601 336.853 335.026 329.591 332.944C322.33 330.862 314.755 335.061 312.673 342.322C310.591 349.584 314.79 357.158 322.051 359.24C329.312 361.322 336.887 357.124 338.969 349.862Z" fill="url(#paint4_linear)"/>
<g style="mix-blend-mode:overlay" opacity="0.5">
<path d="M325.833 353.062C330.974 353.062 335.141 348.895 335.141 343.754C335.141 338.613 330.974 334.446 325.833 334.446C320.692 334.446 316.524 338.613 316.524 343.754C316.524 348.895 320.692 353.062 325.833 353.062Z" fill="white"/>
</g>
<path d="M306.891 320.091C310.107 306.463 301.667 292.808 288.039 289.591C274.411 286.375 260.756 294.815 257.539 308.443C254.323 322.071 262.763 335.726 276.391 338.942C290.019 342.159 303.674 333.719 306.891 320.091Z" fill="url(#paint5_linear)"/>
<g style="mix-blend-mode:overlay" opacity="0.5">
<path d="M299.005 313.857C301.194 304.583 295.45 295.291 286.177 293.102C276.903 290.914 267.611 296.657 265.422 305.931C263.234 315.204 268.977 324.496 278.251 326.685C287.524 328.874 296.816 323.13 299.005 313.857Z" fill="white"/>
</g>
<path d="M233.704 362.262C245.913 350.053 245.913 330.258 233.704 318.049C221.495 305.84 201.7 305.84 189.491 318.049C177.282 330.258 177.282 350.053 189.491 362.262C201.7 374.472 221.495 374.472 233.704 362.262Z" fill="url(#paint6_linear)"/>
<g style="mix-blend-mode:overlay" opacity="0.5">
<path d="M211.598 356.038C223.347 356.038 232.872 346.513 232.872 334.764C232.872 323.014 223.347 313.49 211.598 313.49C199.848 313.49 190.323 323.014 190.323 334.764C190.323 346.513 199.848 356.038 211.598 356.038Z" fill="white"/>
</g>
<path d="M160.13 335.214C170.319 333.959 177.561 324.683 176.306 314.495C175.052 304.307 165.775 297.065 155.587 298.319C145.399 299.574 138.157 308.85 139.411 319.038C140.666 329.226 149.942 336.468 160.13 335.214Z" fill="url(#paint7_linear)"/>
<g style="mix-blend-mode:overlay" opacity="0.5">
<path d="M166.793 322.512C171.732 317.573 171.732 309.564 166.793 304.624C161.853 299.685 153.844 299.685 148.904 304.624C143.965 309.564 143.965 317.573 148.904 322.512C153.844 327.452 161.853 327.452 166.793 322.512Z" fill="white"/>
</g>
<path d="M364.866 140.513C360.531 147.797 359.657 159.016 358.851 169.25C357.925 181.151 356.667 197.325 361.171 207.918C365.333 217.703 368.398 216.082 375.135 217.951C388.377 221.603 467.576 234.492 484.354 220.743C500.872 207.209 506.634 180.543 495.83 159.855C489.171 147.091 473.342 129.26 390.862 130.375C372.688 130.614 368.493 134.416 364.866 140.513Z" fill="url(#paint8_linear)"/>
<path d="M369.958 178.451C369.832 180.015 369.37 181.533 368.603 182.902C367.836 184.271 366.783 185.458 365.515 186.383C364.247 187.307 362.795 187.947 361.257 188.258C359.719 188.57 358.132 188.545 356.604 188.187C351.966 187.082 347.796 186.103 347.796 186.103L347.644 156.743L358.048 154.766C359.691 154.454 361.385 154.525 362.996 154.973C364.608 155.422 366.095 156.236 367.34 157.353C368.586 158.47 369.557 159.859 370.178 161.412C370.8 162.965 371.054 164.641 370.922 166.309L369.958 178.451Z" fill="#26264F"/>
<path d="M448.087 212.075C448.087 212.075 437.707 279.676 408.886 318.063C354.536 390.444 367.47 492.931 367.535 554.323C367.55 569.099 377.496 581.077 391.773 583.709C419.206 588.766 493.171 592.785 557.571 579.986C572.016 577.116 583.408 564.235 584.791 549.187C590.128 491.158 567.685 365.726 518.524 315.225C502.198 298.469 496.318 286.774 498.956 223.71L448.087 212.075Z" fill="url(#paint9_linear)"/>
<path style="mix-blend-mode:multiply" opacity="0.5" d="M545.704 533.807C521.643 467.119 435.088 479.562 418.742 432.275C402.495 385.28 478.782 347.819 480.307 265.523C480.629 248.166 477.624 232.135 472.928 217.757L448.087 212.075C448.087 212.075 437.707 279.676 408.886 318.063C354.536 390.444 367.47 492.931 367.535 554.323C367.55 569.099 377.496 581.077 391.773 583.709C419.206 588.766 493.171 592.785 557.571 579.986C564.183 578.671 570.149 575.26 574.81 570.51C568.263 569.006 562.527 566.184 557.91 561.752C549.88 554.046 550.198 546.259 545.704 533.807Z" fill="url(#paint10_linear)"/>
<path d="M350.924 316.946C388.104 272.583 381 194.182 381 194.182L424.115 208.765C414.742 287.833 378.71 317.758 359.777 325.365C357.348 326.338 349.214 318.987 350.924 316.946Z" fill="url(#paint11_linear)"/>
<path d="M357.893 321.451C395.073 277.087 398.388 199.482 398.388 199.482L431.078 213.267C421.707 292.338 379.608 317.941 360.686 325.55C358.252 326.534 356.175 323.49 357.893 321.451Z" fill="url(#paint12_linear)"/>
<path d="M383.498 139.009C378.581 146.992 377.638 159.108 376.776 170.158C375.775 183.011 374.413 200.477 379.593 212.12C384.42 222.973 389.415 217.706 449.157 231.708C485.849 240.316 515.091 248.696 538.954 233.102C563.229 217.237 571.416 184.047 554.735 158.33C544.651 142.798 524.185 128.702 414.607 130.682C392.867 131.075 387.64 132.287 383.498 139.009Z" fill="url(#paint13_linear)"/>
<path style="mix-blend-mode:multiply" opacity="0.6" d="M505.714 206.326C464.29 193.312 459.551 179.379 434.285 174.653C407.606 169.667 398.126 186.711 389.144 179.948C384.817 176.689 381.049 168.133 380.274 146.341C378.085 153.404 377.408 162.066 376.776 170.161C375.775 183.014 374.413 200.479 379.593 212.122C384.42 222.975 389.415 217.708 449.157 231.71C485.849 240.318 515.091 248.698 538.954 233.104C545.019 229.113 550.19 223.907 554.14 217.815C536.449 214.683 520.301 210.906 505.714 206.326Z" fill="url(#paint14_linear)"/>
<path d="M340.984 171.465C340.944 163.357 343.921 156.768 347.644 156.749C351.367 156.73 354.407 163.286 354.447 171.396C354.488 179.505 351.511 186.092 347.788 186.111C344.065 186.131 341.027 179.572 340.984 171.465Z" fill="url(#paint15_linear)"/>
<path d="M609.109 591.627H599.459L587.507 561.253C587.507 561.253 609.44 562.785 609.109 591.627Z" fill="url(#paint16_linear)"/>
<path d="M383.887 644.159L446.689 632.52C446.689 632.52 452.39 584.042 424.317 579.436C396.244 574.83 381.176 612.382 383.887 644.159Z" fill="url(#paint17_linear)"/>
<path d="M386.976 587.131H386.955C384.998 587.329 383.198 588.094 381.412 589.194C379.694 590.066 377.621 591.093 377.621 592.403V592.433C371.004 599.308 366.652 612.027 366.626 626.264C366.592 645.224 374.306 660.55 384.48 662.318L384.461 662.331C385.146 662.43 393.67 665.517 420.538 662.475C421.252 650.934 421.67 585.604 421.67 585.604C421.67 585.604 400.197 584.495 386.976 587.131Z" fill="url(#paint18_linear)"/>
<path d="M440.618 622.625C440.618 644.322 430.577 662.285 418.409 662.739C406.476 663.181 396.985 646.543 397.006 625.6C397.028 604.657 406.538 586.794 418.452 585.612C430.596 584.409 440.618 600.962 440.618 622.625Z" fill="url(#paint19_linear)"/>
<path d="M431.099 623.123C431.099 638.511 424.403 651.304 416.25 651.682C408.203 652.054 401.765 640.157 401.78 625.127C401.795 610.098 408.246 597.357 416.283 596.629C424.424 595.892 431.101 607.739 431.099 623.123Z" fill="white"/>
<path d="M563.878 564.04H563.861C562.108 564.258 560.426 564.865 558.937 565.816C557.545 566.566 557.919 567.451 555.437 568.581V568.605C551.302 574.532 546.963 585.484 546.941 597.748C546.913 614.075 553.386 627.28 561.639 628.803L561.73 628.814C562.286 628.9 569.249 631.557 591.051 628.938C591.629 618.998 591.996 562.725 591.996 562.725C591.996 562.725 574.602 561.767 563.878 564.04Z" fill="url(#paint20_linear)"/>
<path d="M607.393 594.614C607.393 613.303 599.249 628.771 589.378 629.166C579.696 629.548 571.996 615.215 572.016 597.177C572.035 579.138 579.749 563.75 589.416 562.732C599.264 561.694 607.393 575.945 607.393 594.614Z" fill="url(#paint21_linear)"/>
<path d="M599.67 595.041C599.67 608.298 594.239 619.316 587.625 619.641C581.096 619.961 575.876 609.716 575.887 596.768C575.897 583.821 581.131 572.848 587.65 572.22C594.256 571.587 599.674 581.795 599.67 595.041Z" fill="white"/>
<path d="M149.513 571.876H149.487C147.053 571.876 145.191 573.103 142.967 574.194C140.819 575.024 139.429 576.676 138.602 578.089V578.124C129.504 585.503 124.319 600.287 124.319 617.31C124.319 639.961 133.973 658.631 146.731 661.194L146.609 661.207C147.468 661.353 157.93 665.338 190.115 662.962C190.944 649.819 191.378 574.639 191.378 574.639C191.378 574.639 165.735 570.224 149.513 571.876Z" fill="url(#paint22_linear)"/>
<path d="M187.569 663.168C201.744 663.168 213.234 643.385 213.234 618.981C213.234 594.577 201.744 574.794 187.569 574.794C173.395 574.794 161.904 594.577 161.904 618.981C161.904 643.385 173.395 663.168 187.569 663.168Z" fill="url(#paint23_linear)"/>
<path d="M185.017 650.406C194.581 650.406 202.334 636.259 202.334 618.809C202.334 601.359 194.581 587.213 185.017 587.213C175.453 587.213 167.7 601.359 167.7 618.809C167.7 636.259 175.453 650.406 185.017 650.406Z" fill="url(#paint24_linear)"/>
<path d="M617.419 574.611C617.861 576.614 617.813 578.694 617.277 580.674C616.742 582.654 615.736 584.475 614.345 585.982L609.118 591.641C607.687 574.946 599.049 562.106 588.6 562.106C577.161 562.106 567.869 577.522 567.869 596.53C567.854 600.823 568.35 605.104 569.347 609.28L567.062 610.225L443.621 633.089C443.956 630.545 444.575 627.911 444.575 625.23C444.575 622.807 444.612 620.446 444.612 618.141V618.109C440.476 598.431 430.409 583.443 416.577 583.443C401.11 583.443 388.358 602.163 388.358 625.239C388.358 631.544 389.189 637.516 390.865 642.878L372.407 646.29C372.381 646.436 372.342 646.58 372.289 646.719C371.711 647.345 367.249 651.28 345.436 651.28H104.694C93.8027 651.28 85.6716 641.776 85.6716 630.885V629.987C85.6716 625.813 87.6802 622.006 91.4117 620.131C91.4117 620.131 84.7521 601.03 90.0347 578.182C92.1507 569.058 96.0498 559.339 103.062 550.003C107.508 544.12 112.708 538.848 118.529 534.321C118.529 534.321 145.926 511.595 196.19 505.685C196.19 505.685 237.866 475.394 275.981 455.323C294.672 445.463 315.493 440.331 336.626 440.376H475.985C500.183 440.375 523.902 447.118 544.481 459.848L580.787 482.273C580.787 482.273 589.455 487.429 598.289 499.805C608.34 513.865 618.607 537.247 616.581 572.906L617.44 574.611H617.419Z" fill="url(#paint25_linear)"/>
<path d="M372.351 646.279C372.336 646.309 372.306 646.683 372.261 646.709C370.585 647.759 368.467 652.923 312.628 651.269H104.694C93.8027 651.269 85.6715 641.765 85.6715 630.874V629.976C85.6715 629.733 85.3343 629.503 85.3493 629.26C85.5942 625.376 87.7124 621.888 91.2376 620.12L333.345 622.405C333.345 622.405 356.179 618.246 364.009 622.345C365.105 622.923 365.891 623.656 366.286 624.584C369.571 632.173 373.874 642.73 372.351 646.279Z" fill="url(#paint26_linear)"/>
<g opacity="0.8">
<path opacity="0.8" d="M145.898 578.663V581.816C145.898 583.028 145.652 584.228 145.176 585.342C144.701 586.457 144.004 587.464 143.129 588.302C142.253 589.14 141.217 589.792 140.083 590.22C138.949 590.647 137.74 590.84 136.529 590.788L110.63 589.694C104.412 589.432 98.519 586.845 94.1185 582.444L89.8542 578.177C92.1956 567.967 96.6645 558.365 102.969 549.999C103.059 550.014 103.152 550.014 103.242 550.029L115.676 559.833C122.258 565.032 130.061 568.458 138.342 569.784C140.452 570.124 142.371 571.205 143.755 572.832C145.14 574.459 145.899 576.526 145.898 578.663Z" fill="white"/>
</g>
<path style="mix-blend-mode:multiply" opacity="0.3" d="M260.831 575.052C259.128 577.099 256.285 578.766 254.526 578.77L157.586 578.757C155.827 578.757 153.341 577.086 152.063 575.045C150.793 573.015 151.378 571.393 153.352 571.393H260.279C262.253 571.393 262.533 573.028 260.825 575.062L260.831 575.052Z" fill="url(#paint27_linear)"/>
<path style="mix-blend-mode:multiply" opacity="0.3" d="M249.907 588.293C248.107 590.442 245.499 592.197 244.058 592.195L165.271 592.167C163.836 592.167 161.58 590.412 160.235 588.268C158.895 586.136 159.178 584.422 160.832 584.424L250.103 584.444C251.761 584.444 251.69 586.162 249.907 588.293Z" fill="url(#paint28_linear)"/>
<path opacity="0.8" d="M288.988 591.458C283.089 591.305 278.374 587.026 278.374 581.801V578.613C278.374 573.647 282.651 569.488 288.236 569L298.763 568.083L361.423 551.582L360.05 559.479C357.975 571.415 348.858 581.458 336.138 585.821L326.834 589.011C320.647 591.121 314.133 592.112 307.598 591.937L288.988 591.458Z" fill="white"/>
<g style="mix-blend-mode:soft-light" opacity="0.4">
<path d="M363.96 622.603L337.82 629.772H84.9991C85.2419 625.637 87.5427 622.146 91.0615 620.378L333.251 622.663C333.251 622.663 356.13 618.504 363.96 622.603Z" fill="white"/>
</g>
<path d="M528.604 604.96H528.556C527.714 603.306 527.053 603.819 527.078 602.977C527.096 602.468 528.582 551.582 527.078 530.955C525.779 513.085 522.782 509.846 522.52 509.603C522.196 509.41 521.951 509.108 521.828 508.752C521.706 508.395 521.714 508.006 521.852 507.655C522.001 507.278 522.292 506.974 522.663 506.811C523.033 506.647 523.454 506.636 523.832 506.78C524.932 507.221 528.638 510.218 530.116 530.54C531.62 551.322 530.135 602.564 530.116 603.073C530.099 603.901 529.422 604.96 528.604 604.96Z" fill="url(#paint29_linear)"/>
<path style="mix-blend-mode:multiply" opacity="0.3" d="M617.423 574.611L616.575 572.906C618.6 537.245 608.34 513.867 598.289 499.807C591.954 500.172 583.466 503.326 584.11 517.704C585.116 540.415 580.579 552.145 563.319 562.534C555.124 567.453 546.133 571.687 538.872 577.978C532.385 583.615 529.356 592.266 522.745 597.567C511.575 606.523 496.395 602.547 483.372 601.954C471.506 601.404 444.614 600.841 444.614 618.1V618.13C444.614 620.444 444.577 622.805 444.577 625.22C444.577 627.901 443.933 630.534 443.6 633.078L567.051 610.216L569.343 609.271C568.347 605.095 567.853 600.815 567.869 596.521C567.869 577.511 577.163 562.098 588.6 562.098C599.049 562.098 607.687 574.938 609.12 591.632L614.347 585.973C615.736 584.467 616.741 582.647 617.277 580.669C617.812 578.691 617.862 576.613 617.423 574.611Z" fill="url(#paint30_linear)"/>
<path d="M450.539 451.132C450.539 451.132 434.285 492.722 430.233 498.823C429.853 499.388 429.374 500.228 428.785 500.716C423.166 505.408 409.41 506.553 409.41 506.553H206.831C252.025 471.818 290.612 451.141 290.612 451.141L450.539 451.132Z" fill="url(#paint31_linear)"/>
<path d="M575.06 486.084C575.06 486.084 553.444 494.918 524.413 503.234C523.234 497.677 521.589 492.231 519.493 486.952C514.982 475.513 507.338 462.122 494.359 450.318C506.016 451.145 517.514 453.501 528.557 457.325C543.773 462.625 559.934 471.506 575.06 486.084Z" fill="url(#paint32_linear)"/>
<path d="M516.98 505.307C502.509 509.221 486.606 512.847 470.827 515.161C461.841 516.471 452.897 517.354 444.294 517.614C441.78 517.689 439.282 517.719 436.828 517.689C436.83 517.678 436.835 517.667 436.844 517.659C437.224 516.043 452.625 452.924 466.919 451.051C471.907 450.409 476.928 450.051 481.957 449.976C497.388 461.386 506.314 475.566 511.431 487.691C513.832 493.374 515.69 499.273 516.98 505.307Z" fill="url(#paint33_linear)"/>
<path style="mix-blend-mode:multiply" opacity="0.3" d="M428.785 500.684C423.166 505.375 409.41 506.54 409.41 506.54H206.831C252.025 471.805 290.612 451.128 290.612 451.128H293.476C297.955 452.782 302.342 456.767 306.226 462.299C321.889 484.645 408.48 467.706 428.785 500.684Z" fill="url(#paint34_linear)"/>
<path opacity="0.3" d="M444.294 517.614C441.78 517.689 439.282 517.719 436.828 517.689C436.83 517.678 436.835 517.667 436.844 517.659C438.869 517.644 441.383 517.629 444.294 517.614Z" fill="url(#paint35_linear)"/>
<path style="mix-blend-mode:multiply" opacity="0.3" d="M511.42 487.682C513.825 493.365 515.687 499.264 516.98 505.298C502.509 509.212 486.605 512.838 470.827 515.152C473.05 512.944 475.106 510.157 476.904 506.669C484.749 491.519 498.603 488.915 511.42 487.682Z" fill="url(#paint36_linear)"/>
<path style="mix-blend-mode:multiply" opacity="0.3" d="M575.06 486.084C575.06 486.084 553.444 494.918 524.413 503.234C523.234 497.677 521.589 492.231 519.493 486.952C527.227 486.174 533.919 484.971 537.74 480.372C544.443 472.269 536.127 463.186 528.556 457.326C543.773 462.625 559.934 471.506 575.06 486.084Z" fill="url(#paint37_linear)"/>
<path d="M436.272 520.656C436.272 520.656 442.685 495.345 451.798 494.331C460.91 493.317 486.896 485.895 489.259 498.381C491.622 510.866 486.896 517.098 473.733 517.865C460.571 518.632 451.798 517.865 451.798 517.865L445.722 524.368C445.722 524.368 435.935 531.118 436.272 520.656Z" fill="url(#paint38_linear)"/>
<path d="M433.234 520.656C433.234 520.656 439.647 495.345 448.76 494.331C457.873 493.317 483.858 485.895 486.221 498.381C488.584 510.866 483.858 517.098 470.696 517.865C457.533 518.632 448.76 517.865 448.76 517.865L442.685 524.368C442.685 524.368 432.897 531.118 433.234 520.656Z" fill="url(#paint39_linear)"/>
<path opacity="0.8" d="M375.833 630.745C377.915 627.34 301.263 539.096 301.263 539.096L401.78 571.769L375.833 630.745Z" fill="white"/>
<path d="M184.921 675.211C184.921 675.211 203.14 683.493 203.438 684.814C203.737 686.135 191.722 684.372 186.817 684.563C181.913 684.754 177.876 683.304 178.321 681.227C178.766 679.149 180.482 673.923 180.482 673.923L184.921 675.211Z" fill="url(#paint40_linear)"/>
<path d="M185.589 668.492L184.48 676.696C184.48 676.696 181.595 677.723 179.657 676.507L178.832 667.512L185.589 668.492Z" fill="url(#paint41_linear)"/>
<path d="M99.7877 668.69L97.6695 672.09C97.3761 672.559 97.1817 673.084 97.0982 673.631C97.0148 674.178 97.0439 674.736 97.184 675.272C97.9251 678.101 99.4053 683.615 100.05 685.053C100.928 687.01 112.724 688.174 112.724 688.174C112.724 688.174 113.775 686.694 111.326 684.906C108.877 683.119 107.307 682.84 106.443 680.202C105.579 677.564 105.001 670.105 105.001 670.105L99.7877 668.69Z" fill="url(#paint42_linear)"/>
<path d="M108.608 660.043C107.835 660.662 104.048 672.155 104.048 672.155C104.048 672.155 102.823 673.723 100.494 671.409C98.1658 669.095 99.4397 670.372 99.4397 670.372L99.8693 659.068L108.608 660.043Z" fill="url(#paint43_linear)"/>
<path d="M195.612 503.691C196.573 528.162 196.613 554.744 195.204 583.146C193.619 615.127 190.433 644.685 186.42 671.48C184.916 671.527 183.359 671.534 181.72 671.48C180.613 671.45 179.539 671.398 178.497 671.323C175.849 664.258 173.596 657.051 171.748 649.736C169.656 641.414 168.082 632.971 167.034 624.455C163.526 596.743 167.638 594.324 164.789 573.784C162.267 555.593 158.682 554.88 154.478 529.056C149.911 501.034 153.311 496.832 154.965 495.311C162.005 488.855 178.54 493.257 195.612 503.691Z" fill="url(#paint44_linear)"/>
<path style="mix-blend-mode:multiply" opacity="0.5" d="M154.968 495.319C161.681 489.154 158.029 495.801 174.246 505.201C155.591 525.358 172.562 535.52 174.798 544.003C177.327 553.593 185.011 556.355 184.983 566.839C184.946 579.728 173.318 583.138 173.565 596.772C173.728 605.795 178.837 605.694 180.044 616.831C181.473 630.006 174.796 634.547 176.959 644.296C177.889 648.489 180.545 653.963 188.106 659.615C187.561 663.617 187.002 667.581 186.418 671.469C184.927 671.516 183.359 671.523 181.72 671.469C180.613 671.439 179.539 671.387 178.497 671.312C175.849 664.247 173.596 657.04 171.748 649.725C169.656 641.403 168.082 632.96 167.034 624.444C163.526 596.732 167.638 594.313 164.789 573.773C162.267 555.582 158.682 554.869 154.478 529.045C149.913 501.042 153.314 496.838 154.968 495.319Z" fill="url(#paint45_linear)"/>
<path d="M184.057 503.281C150.356 552.57 124.915 607.022 108.733 664.496C107.057 665.275 105.196 665.564 103.362 665.332C101.005 664.994 98.845 663.827 97.2699 662.041C95.196 649.143 94.727 636.038 95.8736 623.024C96.4257 616.811 97.4009 606.468 101.36 593.696C105.796 579.393 108.845 578.59 114.63 563.455C120.645 547.747 119.18 543.827 124.931 524.17C128.391 512.392 132.683 500.874 137.775 489.704L184.057 503.281Z" fill="url(#paint46_linear)"/>
<path d="M267.452 524.282C264.363 529.085 241.426 537.229 234.154 534.632C217.183 528.561 209.376 507.092 208.42 489.908C208.205 486.219 208.345 482.604 207.597 482.503C205.716 482.226 200.886 504.533 197.095 523.446C194.046 524.563 189.425 525.747 184.145 524.881C175.501 523.466 174.478 518.097 164.811 514.596C159.17 512.553 153.64 512.548 142.592 512.538C130.115 512.527 129.771 514.067 127.369 512.95C122.92 510.886 117.683 502.638 144.125 400.167C145.863 393.43 148.796 382.663 156.985 379.527C163.694 376.949 172.317 381.737 189.292 391.398C197.774 396.225 207.252 401.688 218.375 411.4C225.95 418.017 231.224 422.623 235.561 429.016C253.082 454.795 232.833 476.277 248.726 509.249C254.223 520.583 270.692 519.251 267.452 524.282Z" fill="url(#paint47_linear)"/>
<path style="mix-blend-mode:multiply" opacity="0.3" d="M146.72 498.961C151.685 496.383 150.43 490.952 154.744 487.852C161.176 483.229 169.021 491.654 177.58 490.32C196.27 487.41 198.152 441.173 210.291 440.945C216.004 440.838 221.512 450.986 223.252 458.844C226.294 472.593 214.642 478.728 216.461 495.876C216.79 498.95 217.131 498.454 225.104 521.18C226.163 524.203 227.136 527 228.014 529.545C216.397 520.389 209.209 503.73 208.44 489.908C208.225 486.219 208.364 482.604 207.617 482.503C205.735 482.226 200.906 504.533 197.114 523.446C194.066 524.564 189.445 525.747 184.164 524.881C175.52 523.466 174.497 518.097 164.83 514.596C159.189 512.553 153.659 512.548 142.611 512.538C130.134 512.527 129.79 514.067 127.388 512.95C125.567 512.104 123.618 510.213 123.76 501.261C127.427 498.98 130.576 498.323 133.148 498.344C138.411 498.394 142.263 501.279 146.72 498.961Z" fill="url(#paint48_linear)"/>
<path d="M211.11 386.749C211.11 386.749 206.549 391.929 201.645 394.612C197.215 397.039 187.447 392.953 185.187 392.463C182.927 391.974 185.64 398.07 189.913 402.264C194.186 406.457 208.27 416.049 212.07 416.21C215.87 416.371 211.458 413.041 209.125 409.166C206.792 405.291 210.081 397.276 213.026 394.807C215.971 392.339 211.11 386.749 211.11 386.749Z" fill="url(#paint49_linear)"/>
<path d="M259.422 519.498C259.422 519.498 265.978 522.628 270.616 523.283C275.254 523.938 276.262 527.644 274.975 529.006C273.688 530.368 266.305 528.877 263.836 527.489C261.368 526.102 259.422 519.498 259.422 519.498Z" fill="url(#paint50_linear)"/>
<path d="M125.732 452.056C121.986 451.927 106.694 450.982 95.285 438.889C83.7339 426.644 79.2977 406.29 87.88 392.395C94.7329 381.301 107.352 378.431 120.28 375.482C137.141 371.64 150.385 374.558 155.677 375.991C164.678 378.429 178.59 382.199 180.083 390.526C181.731 399.729 167.984 413.239 154.596 413.901C141.086 414.567 133.859 401.853 121.64 405.714C120.81 405.976 114.946 407.918 112.187 413.121C107.835 421.332 112.763 434.777 125.612 445.559C125.649 447.723 125.689 449.889 125.732 452.056Z" fill="url(#paint51_linear)"/>
<path d="M221.591 390.801C224.075 389.634 225.744 385.593 224.517 382.532C223.608 380.261 221.426 379.335 219.834 378.665C219.097 378.352 213.89 376.214 210.547 378.88C209.486 379.729 208.659 381.243 208.399 382.672C208.263 383.409 208.257 384.42 208.384 386.44C208.495 388.229 208.463 388.158 208.508 388.68C208.62 389.95 208.968 392.186 210.205 395.284C210.836 394.589 211.526 393.951 212.268 393.376C213.231 392.629 214.286 392.007 215.406 391.527C218.435 390.307 219.651 391.714 221.591 390.801Z" fill="url(#paint52_linear)"/>
<path d="M208.313 391.84C208.313 391.84 208.543 396.781 213.209 398.966C217.387 400.913 222.934 392.188 221.409 388.859C220.899 387.746 219.323 386.539 217.707 386.163C216.753 385.948 216.285 386.133 214.734 385.733C213.303 385.372 213.026 385.039 212.472 385.149C211.782 385.288 210.899 386.075 210.242 389.153C209.898 387.952 209.138 387.147 208.309 387.097C208.018 387.097 207.733 387.177 207.484 387.327C206.36 388.051 206.581 389.888 208.313 391.84Z" fill="url(#paint53_linear)"/>
<path d="M210.738 386.42C210.738 386.42 210.322 390.481 210.738 391.791C211.155 393.101 212.874 394.895 215.55 395.155C217.026 395.32 218.515 395.32 219.991 395.155C219.991 395.155 217.991 399.817 217.157 399.995C216.324 400.173 211.228 399.931 210.298 399.071C209.368 398.212 208.229 394.457 208.502 392.796C208.775 391.136 210.298 387.383 210.298 387.383L210.738 386.42Z" fill="url(#paint54_linear)"/>
<path d="M226.635 418.773C226.635 418.773 216.783 467.203 207.613 482.503L195.486 534.793L124.924 524.172C124.924 524.172 121.676 497.59 123.741 489.706H147.15L169.198 380.36L178.098 385.119L166.88 443.044L206.801 457.089L218.401 411.389L226.635 418.773Z" fill="url(#paint55_linear)"/>
<path d="M140.244 455.612L306.531 545.373L308.627 541.49L142.34 451.729L140.244 455.612Z" fill="url(#paint56_linear)"/>
<path d="M114.815 472.677L129.663 480.692C130.413 481.097 131.273 481.251 132.117 481.132C132.961 481.013 133.744 480.627 134.353 480.03L139.416 475.07C139.416 475.07 151.371 482.649 158.751 472.647L189.855 485.966C191.233 486.554 192.782 486.607 194.197 486.113C195.612 485.62 196.791 484.616 197.505 483.298C198.26 481.896 198.428 480.251 197.972 478.725C197.516 477.2 196.473 475.917 195.073 475.158L139.3 445.044C137.938 444.307 136.364 444.058 134.84 444.338C133.317 444.617 131.934 445.409 130.922 446.582L113.683 466.561C113.294 467.014 113.011 467.547 112.856 468.124C112.701 468.7 112.677 469.303 112.785 469.89C112.894 470.476 113.132 471.031 113.484 471.514C113.835 471.996 114.29 472.394 114.815 472.677ZM140.957 473.27L145.741 466.84L154.579 470.295C149.857 479.388 140.957 473.27 140.957 473.27Z" fill="url(#paint57_linear)"/>
<path d="M125.612 450.359C125.612 450.359 128.884 449.588 131.397 452.056C133.91 454.524 140.42 458.084 143.339 456.844L133.616 449.452L125.614 446.659L125.612 450.359Z" fill="url(#paint58_linear)"/>
<path d="M410.244 560.048C410.244 559.022 409.872 558.031 409.197 557.26C408.521 556.488 407.588 555.988 406.571 555.853C405.554 555.718 404.523 555.957 403.669 556.526C402.815 557.094 402.197 557.954 401.93 558.944C399.825 558.085 397.494 557.947 395.303 558.553C393.111 559.159 391.182 560.474 389.817 562.292C388.452 564.11 387.728 566.33 387.758 568.604C387.788 570.877 388.571 573.077 389.984 574.858C389.657 574.816 389.329 574.794 389 574.792C387.546 574.792 386.119 575.187 384.872 575.937C383.626 576.686 382.607 577.761 381.926 579.045C381.244 580.33 380.924 581.776 381.002 583.228C381.08 584.68 381.551 586.084 382.366 587.288C380.502 588.422 379.135 590.218 378.538 592.316C377.941 594.415 378.157 596.661 379.144 598.607C377.688 598.814 376.325 599.442 375.222 600.413C374.118 601.385 373.323 602.657 372.933 604.074C372.087 603.653 371.161 603.416 370.217 603.38C369.272 603.344 368.331 603.509 367.456 603.865C366.58 604.221 365.79 604.759 365.139 605.444C364.487 606.128 363.989 606.944 363.677 607.836C363.365 608.728 363.246 609.676 363.329 610.618C363.411 611.559 363.694 612.472 364.156 613.296C364.619 614.12 365.252 614.836 366.013 615.397C366.774 615.957 367.646 616.35 368.57 616.547C367.811 618.639 367.9 620.945 368.817 622.973C367.573 623.389 366.469 624.141 365.625 625.145C364.781 626.149 364.23 627.366 364.034 628.663C363.837 629.96 364.003 631.285 364.512 632.494C365.02 633.703 365.853 634.748 366.918 635.514C367.982 636.28 369.238 636.737 370.546 636.836C371.854 636.934 373.163 636.669 374.33 636.071C375.497 635.472 376.477 634.563 377.16 633.444C377.844 632.325 378.205 631.038 378.205 629.727C378.203 629.126 378.124 628.529 377.971 627.948C380.003 627.64 381.858 626.613 383.198 625.054C384.538 623.495 385.275 621.507 385.275 619.452C385.275 619.22 385.258 618.994 385.24 618.766C386.503 618.601 387.662 617.981 388.502 617.024C389.342 616.067 389.805 614.837 389.805 613.563C389.805 613.422 389.795 613.284 389.784 613.147C390.912 612.832 391.923 612.191 392.69 611.306C393.457 610.42 393.946 609.329 394.097 608.167C394.247 607.005 394.052 605.825 393.536 604.773C393.02 603.721 392.206 602.845 391.195 602.253C393.066 601.196 394.477 599.483 395.157 597.445C395.837 595.407 395.738 593.19 394.877 591.221C396.07 591.031 397.155 590.423 397.939 589.505C398.723 588.586 399.154 587.419 399.155 586.212C399.155 586.139 399.155 586.068 399.144 585.997H399.155C400.715 585.999 402.25 585.604 403.614 584.847C404.979 584.091 406.128 582.999 406.952 581.675C407.777 580.35 408.25 578.838 408.327 577.279C408.404 575.721 408.082 574.169 407.391 572.77C408.024 571.405 408.348 569.917 408.338 568.413C408.329 566.908 407.986 565.424 407.335 564.068C408.181 563.789 408.918 563.25 409.44 562.529C409.962 561.807 410.243 560.939 410.244 560.048Z" fill="url(#paint59_linear)"/>
<path d="M597.423 353.131C597.423 393.346 564.834 427.437 523.257 429.338C480.077 431.312 443.828 398.053 443.828 354.985C443.828 311.917 480.075 277.783 523.257 278.722C564.832 279.612 597.423 312.916 597.423 353.131Z" fill="url(#paint60_linear)"/>
<path d="M602.248 353.131C602.248 393.346 569.659 427.437 528.082 429.338C484.902 431.312 448.652 398.053 448.652 354.985C448.652 311.917 484.9 277.783 528.082 278.722C569.659 279.612 602.248 312.916 602.248 353.131Z" fill="url(#paint61_linear)"/>
<path d="M597.659 353.187C597.659 391.078 566.92 423.14 527.777 424.85C487.218 426.623 453.232 395.344 453.232 354.929C453.232 314.514 487.207 282.415 527.777 283.21C566.918 283.975 597.659 315.294 597.659 353.187Z" fill="white"/>
<g style="mix-blend-mode:multiply" opacity="0.3">
<path style="mix-blend-mode:multiply" opacity="0.3" d="M494.616 321.694C492.062 313.371 492.18 300.731 504.631 282.054C472.509 291.309 448.652 320.437 448.652 355.282C448.652 398.352 484.9 431.609 528.082 429.635C543.361 428.956 558.106 423.816 570.495 414.848C570.125 403.362 567.627 390.788 560.6 379.187C541.276 347.305 502.627 347.801 494.616 321.694Z" fill="url(#paint62_linear)"/>
</g>
<path d="M572.916 359.842C569.708 357.116 556.879 354.39 556.879 354.39L546.456 364.813H512.943C501.291 361.34 491.959 358.536 480.307 355.062C479.961 354.968 478.986 354.762 478.27 355.187C477.688 355.531 477.521 355.859 477.521 356.691L477.48 381.699C477.48 381.896 477.519 382.091 477.596 382.272C477.672 382.454 477.784 382.618 477.926 382.755C478.067 382.893 478.234 383 478.418 383.072C478.601 383.144 478.797 383.178 478.994 383.172L484.32 383.022C484.32 383.022 484.722 370.594 496.747 370.594C508.773 370.594 508.133 382.702 508.133 382.702H544.454C544.454 382.702 544.213 370.594 556.561 370.594C568.909 370.594 569.236 383.103 569.236 383.103H573.251C574.54 381.6 577.67 377.518 577.895 371.718C577.956 370.137 578.041 366.936 576.177 363.653C575.317 362.205 574.214 360.916 572.916 359.842Z" fill="url(#paint63_linear)"/>
<path d="M484.515 352.055C484.515 352.055 507.811 340.6 524.006 340.759V360.349H513.719L484.515 352.055Z" fill="url(#paint64_linear)"/>
<path d="M530.099 340.759C530.099 340.759 541.805 340.012 552.709 352.519L544.146 360.349H529.946C529.946 360.349 529.94 340.6 530.099 340.759Z" fill="url(#paint65_linear)"/>
<path d="M499.742 390.244C503.779 388.572 505.696 383.943 504.024 379.906C502.352 375.869 497.723 373.952 493.686 375.624C489.649 377.296 487.732 381.925 489.404 385.962C491.077 389.999 495.705 391.916 499.742 390.244Z" fill="url(#paint66_linear)"/>
<path d="M564.237 384.73C565.24 380.477 562.607 376.216 558.354 375.212C554.101 374.209 549.84 376.843 548.836 381.095C547.832 385.348 550.466 389.61 554.719 390.613C558.972 391.617 563.233 388.983 564.237 384.73Z" fill="url(#paint67_linear)"/>
<path d="M514.039 322.839C514.039 319.58 519.942 309.447 519.942 309.447C519.942 309.447 525.843 319.58 525.843 322.839C525.843 324.406 525.221 325.908 524.113 327.016C523.005 328.124 521.502 328.746 519.936 328.746C518.369 328.746 516.866 328.124 515.758 327.016C514.65 325.908 514.028 324.406 514.028 322.839H514.039Z" fill="url(#paint68_linear)"/>
<path d="M528.44 322.839C528.44 319.58 534.342 309.447 534.342 309.447C534.342 309.447 540.243 319.58 540.243 322.839C540.243 324.404 539.621 325.905 538.515 327.012C537.408 328.118 535.907 328.74 534.342 328.74C532.777 328.74 531.276 328.118 530.169 327.012C529.062 325.905 528.44 324.404 528.44 322.839Z" fill="url(#paint69_linear)"/>
<path d="M499.639 322.839C499.639 319.58 505.54 309.447 505.54 309.447C505.54 309.447 511.444 319.58 511.444 322.839C511.458 323.623 511.317 324.403 511.027 325.132C510.737 325.861 510.305 326.526 509.755 327.086C509.206 327.646 508.55 328.091 507.826 328.395C507.103 328.698 506.326 328.855 505.541 328.855C504.756 328.855 503.98 328.698 503.256 328.395C502.533 328.091 501.877 327.646 501.327 327.086C500.778 326.526 500.345 325.861 500.055 325.132C499.766 324.403 499.624 323.623 499.639 322.839Z" fill="url(#paint70_linear)"/>
<path d="M542.857 322.839C542.857 319.58 548.759 309.447 548.759 309.447C548.759 309.447 554.66 319.58 554.66 322.839C554.66 324.404 554.038 325.905 552.931 327.012C551.825 328.118 550.324 328.74 548.759 328.74C547.193 328.74 545.692 328.118 544.586 327.012C543.479 325.905 542.857 324.404 542.857 322.839Z" fill="url(#paint71_linear)"/>
<defs>
<linearGradient id="paint0_linear" x1="228.582" y1="120.491" x2="304.303" y2="386.824" gradientUnits="userSpaceOnUse">
<stop stop-color="#FF9085"/>
<stop offset="1" stop-color="#FB6FBB"/>
</linearGradient>
<linearGradient id="paint1_linear" x1="-295395" y1="-144688" x2="1.16902e+06" y2="1.2135e+06" gradientUnits="userSpaceOnUse">
<stop stop-color="#FCB148"/>
<stop offset="0.05" stop-color="#FDBA46"/>
<stop offset="0.14" stop-color="#FFC244"/>
<stop offset="0.32" stop-color="#FFC444"/>
<stop offset="0.48" stop-color="#FDB946"/>
<stop offset="0.78" stop-color="#F99C4D"/>
<stop offset="0.87" stop-color="#F8924F"/>
<stop offset="1" stop-color="#F8924F"/>
</linearGradient>
<linearGradient id="paint2_linear" x1="242.981" y1="152.227" x2="197.318" y2="558.852" gradientUnits="userSpaceOnUse">
<stop stop-color="#FCB148"/>
<stop offset="0.05" stop-color="#FDBA46"/>
<stop offset="0.14" stop-color="#FFC244"/>
<stop offset="0.32" stop-color="#FFC444"/>
<stop offset="0.48" stop-color="#FDB946"/>
<stop offset="0.78" stop-color="#F99C4D"/>
<stop offset="0.87" stop-color="#F8924F"/>
<stop offset="1" stop-color="#F8924F"/>
</linearGradient>
<linearGradient id="paint3_linear" x1="290.892" y1="325.846" x2="276.677" y2="521.556" gradientUnits="userSpaceOnUse">
<stop stop-color="#E38DDD"/>
<stop offset="1" stop-color="#9571F6"/>
</linearGradient>
<linearGradient id="paint4_linear" x1="49020.2" y1="41475" x2="48354.4" y2="50644.9" gradientUnits="userSpaceOnUse">
<stop stop-color="#E38DDD"/>
<stop offset="1" stop-color="#9571F6"/>
</linearGradient>
<linearGradient id="paint5_linear" x1="80586.8" y1="64400.7" x2="78298.9" y2="95906.1" gradientUnits="userSpaceOnUse">
<stop stop-color="#E38DDD"/>
<stop offset="1" stop-color="#9571F6"/>
</linearGradient>
<linearGradient id="paint6_linear" x1="78888.6" y1="83999.9" x2="75409.6" y2="131906" gradientUnits="userSpaceOnUse">
<stop stop-color="#E38DDD"/>
<stop offset="1" stop-color="#9571F6"/>
</linearGradient>
<linearGradient id="paint7_linear" x1="37363.5" y1="49699.7" x2="36133.8" y2="66632.5" gradientUnits="userSpaceOnUse">
<stop stop-color="#E38DDD"/>
<stop offset="1" stop-color="#9571F6"/>
</linearGradient>
<linearGradient id="paint8_linear" x1="289.206" y1="232.03" x2="457.102" y2="166.048" gradientUnits="userSpaceOnUse">
<stop stop-color="#311944"/>
<stop offset="1" stop-color="#893976"/>
</linearGradient>
<linearGradient id="paint9_linear" x1="672571" y1="594675" x2="266983" y2="1.02852e+06" gradientUnits="userSpaceOnUse">
<stop stop-color="#FCB148"/>
<stop offset="0.05" stop-color="#FDBA46"/>
<stop offset="0.14" stop-color="#FFC244"/>
<stop offset="0.32" stop-color="#FFC444"/>
<stop offset="0.48" stop-color="#FDB946"/>
<stop offset="0.78" stop-color="#F99C4D"/>
<stop offset="0.87" stop-color="#F8924F"/>
<stop offset="1" stop-color="#F8924F"/>
</linearGradient>
<linearGradient id="paint10_linear" x1="409436" y1="701732" x2="612119" y2="701732" gradientUnits="userSpaceOnUse">
<stop stop-color="#FCB148"/>
<stop offset="0.05" stop-color="#FDBA46"/>
<stop offset="0.14" stop-color="#FFC244"/>
<stop offset="0.32" stop-color="#FFC444"/>
<stop offset="0.48" stop-color="#FDB946"/>
<stop offset="0.78" stop-color="#F99C4D"/>
<stop offset="0.87" stop-color="#F8924F"/>
<stop offset="1" stop-color="#F8924F"/>
</linearGradient>
<linearGradient id="paint11_linear" x1="176821" y1="160966" x2="226750" y2="179767" gradientUnits="userSpaceOnUse">
<stop stop-color="#311944"/>
<stop offset="1" stop-color="#893976"/>
</linearGradient>
<linearGradient id="paint12_linear" x1="-245366" y1="130091" x2="-227447" y2="137244" gradientUnits="userSpaceOnUse">
<stop stop-color="#311944"/>
<stop offset="1" stop-color="#893976"/>
</linearGradient>
<linearGradient id="paint13_linear" x1="637372" y1="82664.9" x2="545013" y2="178318" gradientUnits="userSpaceOnUse">
<stop stop-color="#311944"/>
<stop offset="1" stop-color="#893976"/>
</linearGradient>
<linearGradient id="paint14_linear" x1="403002" y1="117549" x2="552102" y2="129477" gradientUnits="userSpaceOnUse">
<stop stop-color="#311944"/>
<stop offset="1" stop-color="#893976"/>
</linearGradient>
<linearGradient id="paint15_linear" x1="391.034" y1="196.225" x2="307.712" y2="148.534" gradientUnits="userSpaceOnUse">
<stop stop-color="#444B8C"/>
<stop offset="1" stop-color="#26264F"/>
</linearGradient>
<linearGradient id="paint16_linear" x1="134239" y1="83927.6" x2="135926" y2="82744.3" gradientUnits="userSpaceOnUse">
<stop stop-color="#FF9085"/>
<stop offset="1" stop-color="#FB6FBB"/>
</linearGradient>
<linearGradient id="paint17_linear" x1="328005" y1="204940" x2="344935" y2="188638" gradientUnits="userSpaceOnUse">
<stop stop-color="#FF9085"/>
<stop offset="1" stop-color="#FB6FBB"/>
</linearGradient>
<linearGradient id="paint18_linear" x1="366.626" y1="624.595" x2="421.67" y2="624.595" gradientUnits="userSpaceOnUse">
<stop stop-color="#444B8C"/>
<stop offset="1" stop-color="#3E4177"/>
</linearGradient>
<linearGradient id="paint19_linear" x1="453.035" y1="557.079" x2="396.99" y2="666.956" gradientUnits="userSpaceOnUse">
<stop stop-color="#EBEFF2"/>
<stop offset="0.99" stop-color="#B7C0CE"/>
</linearGradient>
<linearGradient id="paint20_linear" x1="272730" y1="188108" x2="282179" y2="188108" gradientUnits="userSpaceOnUse">
<stop stop-color="#444B8C"/>
<stop offset="1" stop-color="#3E4177"/>
</linearGradient>
<linearGradient id="paint21_linear" x1="226162" y1="167226" x2="207809" y2="186368" gradientUnits="userSpaceOnUse">
<stop stop-color="#EBEFF2"/>
<stop offset="0.99" stop-color="#B7C0CE"/>
</linearGradient>
<linearGradient id="paint22_linear" x1="273311" y1="265670" x2="294245" y2="265670" gradientUnits="userSpaceOnUse">
<stop stop-color="#444B8C"/>
<stop offset="1" stop-color="#3E4177"/>
</linearGradient>
<linearGradient id="paint23_linear" x1="233666" y1="223882" x2="201598" y2="260398" gradientUnits="userSpaceOnUse">
<stop stop-color="#444B8C"/>
<stop offset="1" stop-color="#3E4177"/>
</linearGradient>
<linearGradient id="paint24_linear" x1="148254" y1="182616" x2="153837" y2="182616" gradientUnits="userSpaceOnUse">
<stop stop-color="#444B8C"/>
<stop offset="1" stop-color="#3E4177"/>
</linearGradient>
<linearGradient id="paint25_linear" x1="1.36628e+06" y1="422315" x2="1.27268e+06" y2="658424" gradientUnits="userSpaceOnUse">
<stop stop-color="#FF9085"/>
<stop offset="1" stop-color="#FB6FBB"/>
</linearGradient>
<linearGradient id="paint26_linear" x1="1.32648e+06" y1="83763.2" x2="1.32597e+06" y2="109719" gradientUnits="userSpaceOnUse">
<stop stop-color="#FF9085"/>
<stop offset="1" stop-color="#FB6FBB"/>
</linearGradient>
<linearGradient id="paint27_linear" x1="463782" y1="20319.9" x2="520684" y2="20319.9" gradientUnits="userSpaceOnUse">
<stop stop-color="#FF9085"/>
<stop offset="1" stop-color="#FB6FBB"/>
</linearGradient>
<linearGradient id="paint28_linear" x1="388893" y1="21863.7" x2="428216" y2="21863.7" gradientUnits="userSpaceOnUse">
<stop stop-color="#FF9085"/>
<stop offset="1" stop-color="#FB6FBB"/>
</linearGradient>
<linearGradient id="paint29_linear" x1="-11415.9" y1="268999" x2="-7570.52" y2="268837" gradientUnits="userSpaceOnUse">
<stop stop-color="#FF9085"/>
<stop offset="1" stop-color="#FB6FBB"/>
</linearGradient>
<linearGradient id="paint30_linear" x1="988554" y1="409317" x2="1.07575e+06" y2="296994" gradientUnits="userSpaceOnUse">
<stop stop-color="#FF9085"/>
<stop offset="1" stop-color="#FB6FBB"/>
</linearGradient>
<linearGradient id="paint31_linear" x1="1.08662e+06" y1="123981" x2="1.3631e+06" y2="123981" gradientUnits="userSpaceOnUse">
<stop stop-color="#444B8C"/>
<stop offset="1" stop-color="#3E4177"/>
</linearGradient>
<linearGradient id="paint32_linear" x1="468264" y1="117890" x2="498580" y2="117890" gradientUnits="userSpaceOnUse">
<stop stop-color="#444B8C"/>
<stop offset="1" stop-color="#3E4177"/>
</linearGradient>
<linearGradient id="paint33_linear" x1="443553" y1="152980" x2="473458" y2="152980" gradientUnits="userSpaceOnUse">
<stop stop-color="#444B8C"/>
<stop offset="1" stop-color="#3E4177"/>
</linearGradient>
<linearGradient id="paint34_linear" x1="1.04466e+06" y1="145037" x2="1.0589e+06" y2="88798.6" gradientUnits="userSpaceOnUse">
<stop stop-color="#444B8C"/>
<stop offset="1" stop-color="#3E4177"/>
</linearGradient>
<linearGradient id="paint35_linear" x1="41771" y1="727.216" x2="41771" y2="724.133" gradientUnits="userSpaceOnUse">
<stop stop-color="#444B8C"/>
<stop offset="1" stop-color="#3E4177"/>
</linearGradient>
<linearGradient id="paint36_linear" x1="264584" y1="67358" x2="268467" y2="60924.4" gradientUnits="userSpaceOnUse">
<stop stop-color="#444B8C"/>
<stop offset="1" stop-color="#3E4177"/>
</linearGradient>
<linearGradient id="paint37_linear" x1="329790" y1="107508" x2="336998" y2="98906" gradientUnits="userSpaceOnUse">
<stop stop-color="#444B8C"/>
<stop offset="1" stop-color="#3E4177"/>
</linearGradient>
<linearGradient id="paint38_linear" x1="299745" y1="85881.6" x2="307018" y2="74994" gradientUnits="userSpaceOnUse">
<stop stop-color="#FF9085"/>
<stop offset="1" stop-color="#FB6FBB"/>
</linearGradient>
<linearGradient id="paint39_linear" x1="-95762.6" y1="91430" x2="-75416.2" y2="78567.4" gradientUnits="userSpaceOnUse">
<stop stop-color="#FF9085"/>
<stop offset="1" stop-color="#FB6FBB"/>
</linearGradient>
<linearGradient id="paint40_linear" x1="193.748" y1="646.485" x2="189.223" y2="704.088" gradientUnits="userSpaceOnUse">
<stop stop-color="#311944"/>
<stop offset="1" stop-color="#A03976"/>
</linearGradient>
<linearGradient id="paint41_linear" x1="182.063" y1="678.554" x2="182.886" y2="618.893" gradientUnits="userSpaceOnUse">
<stop stop-color="#FFC444"/>
<stop offset="1" stop-color="#F36F56"/>
</linearGradient>
<linearGradient id="paint42_linear" x1="42162" y1="58694.7" x2="42663.7" y2="63903" gradientUnits="userSpaceOnUse">
<stop stop-color="#311944"/>
<stop offset="1" stop-color="#A03976"/>
</linearGradient>
<linearGradient id="paint43_linear" x1="25482.2" y1="43568.5" x2="25407.7" y2="39790.5" gradientUnits="userSpaceOnUse">
<stop stop-color="#FFC444"/>
<stop offset="1" stop-color="#F36F56"/>
</linearGradient>
<linearGradient id="paint44_linear" x1="98795.6" y1="485974" x2="107854" y2="485974" gradientUnits="userSpaceOnUse">
<stop stop-color="#FFC444"/>
<stop offset="1" stop-color="#F36F56"/>
</linearGradient>
<linearGradient id="paint45_linear" x1="-80767.5" y1="484480" x2="-87218" y2="484480" gradientUnits="userSpaceOnUse">
<stop stop-color="#FCB148"/>
<stop offset="0.05" stop-color="#FDBA46"/>
<stop offset="0.14" stop-color="#FFC244"/>
<stop offset="0.32" stop-color="#FFC444"/>
<stop offset="0.48" stop-color="#FDB946"/>
<stop offset="0.78" stop-color="#F99C4D"/>
<stop offset="0.87" stop-color="#F8924F"/>
<stop offset="1" stop-color="#F8924F"/>
</linearGradient>
<linearGradient id="paint46_linear" x1="212137" y1="398699" x2="283764" y2="502691" gradientUnits="userSpaceOnUse">
<stop stop-color="#FFC444"/>
<stop offset="1" stop-color="#F36F56"/>
</linearGradient>
<linearGradient id="paint47_linear" x1="193.118" y1="503.442" x2="161.75" y2="415.972" gradientUnits="userSpaceOnUse">
<stop stop-color="#AA80F9"/>
<stop offset="1" stop-color="#6165D7"/>
</linearGradient>
<linearGradient id="paint48_linear" x1="239546" y1="210824" x2="251162" y2="172709" gradientUnits="userSpaceOnUse">
<stop stop-color="#AA80F9"/>
<stop offset="1" stop-color="#6165D7"/>
</linearGradient>
<linearGradient id="paint49_linear" x1="65984.2" y1="57970.2" x2="65984.2" y2="53081.1" gradientUnits="userSpaceOnUse">
<stop stop-color="#FFC444"/>
<stop offset="1" stop-color="#F36F56"/>
</linearGradient>
<linearGradient id="paint50_linear" x1="30266.9" y1="25048.4" x2="31468.8" y2="25048.4" gradientUnits="userSpaceOnUse">
<stop stop-color="#FFC444"/>
<stop offset="1" stop-color="#F36F56"/>
</linearGradient>
<linearGradient id="paint51_linear" x1="227732" y1="188269" x2="237622" y2="154247" gradientUnits="userSpaceOnUse">
<stop stop-color="#AA80F9"/>
<stop offset="1" stop-color="#6165D7"/>
</linearGradient>
<linearGradient id="paint52_linear" x1="-16685.2" y1="29709.8" x2="-14627.1" y2="28065" gradientUnits="userSpaceOnUse">
<stop stop-color="#444B8C"/>
<stop offset="1" stop-color="#3E4177"/>
</linearGradient>
<linearGradient id="paint53_linear" x1="31527.8" y1="27300.6" x2="32589.3" y2="25126" gradientUnits="userSpaceOnUse">
<stop stop-color="#FFC444"/>
<stop offset="1" stop-color="#F36F56"/>
</linearGradient>
<linearGradient id="paint54_linear" x1="6698.86" y1="26458.4" x2="6052" y2="25068.6" gradientUnits="userSpaceOnUse">
<stop stop-color="#444B8C"/>
<stop offset="1" stop-color="#3E4177"/>
</linearGradient>
<linearGradient id="paint55_linear" x1="245423" y1="351444" x2="300521" y2="457613" gradientUnits="userSpaceOnUse">
<stop stop-color="#FFC444"/>
<stop offset="1" stop-color="#F36F56"/>
</linearGradient>
<linearGradient id="paint56_linear" x1="171870" y1="10736.4" x2="319986" y2="10736.6" gradientUnits="userSpaceOnUse">
<stop stop-color="#444B8C"/>
<stop offset="1" stop-color="#3E4177"/>
</linearGradient>
<linearGradient id="paint57_linear" x1="-198899" y1="82195.3" x2="-202906" y2="105901" gradientUnits="userSpaceOnUse">
<stop stop-color="#444B8C"/>
<stop offset="1" stop-color="#3E4177"/>
</linearGradient>
<linearGradient id="paint58_linear" x1="44136.6" y1="22406" x2="45599.5" y2="22406" gradientUnits="userSpaceOnUse">
<stop stop-color="#FFC444"/>
<stop offset="1" stop-color="#F36F56"/>
</linearGradient>
<linearGradient id="paint59_linear" x1="95706.2" y1="219437" x2="106035" y2="234937" gradientUnits="userSpaceOnUse">
<stop stop-color="#EBEFF2"/>
<stop offset="0.99" stop-color="#B7C0CE"/>
</linearGradient>
<linearGradient id="paint60_linear" x1="307575" y1="444494" x2="387961" y2="287889" gradientUnits="userSpaceOnUse">
<stop stop-color="#AA80F9"/>
<stop offset="1" stop-color="#6165D7"/>
</linearGradient>
<linearGradient id="paint61_linear" x1="447073" y1="109898" x2="403658" y2="307744" gradientUnits="userSpaceOnUse">
<stop stop-color="#E38DDD"/>
<stop offset="1" stop-color="#9571F6"/>
</linearGradient>
<linearGradient id="paint62_linear" x1="286105" y1="244908" x2="355210" y2="244908" gradientUnits="userSpaceOnUse">
<stop stop-color="#AA80F9"/>
<stop offset="1" stop-color="#6165D7"/>
</linearGradient>
<linearGradient id="paint63_linear" x1="272910" y1="58297.4" x2="272910" y2="31367.5" gradientUnits="userSpaceOnUse">
<stop stop-color="#E38DDD"/>
<stop offset="1" stop-color="#9571F6"/>
</linearGradient>
<linearGradient id="paint64_linear" x1="103293" y1="39780.6" x2="103293" y2="21450.4" gradientUnits="userSpaceOnUse">
<stop stop-color="#E38DDD"/>
<stop offset="1" stop-color="#9571F6"/>
</linearGradient>
<linearGradient id="paint65_linear" x1="63716.7" y1="39794.7" x2="63716.7" y2="21457.8" gradientUnits="userSpaceOnUse">
<stop stop-color="#E38DDD"/>
<stop offset="1" stop-color="#9571F6"/>
</linearGradient>
<linearGradient id="paint66_linear" x1="41128" y1="32230.7" x2="41128" y2="17425.2" gradientUnits="userSpaceOnUse">
<stop stop-color="#E38DDD"/>
<stop offset="1" stop-color="#9571F6"/>
</linearGradient>
<linearGradient id="paint67_linear" x1="45595.7" y1="32230.7" x2="45595.7" y2="17425.3" gradientUnits="userSpaceOnUse">
<stop stop-color="#E38DDD"/>
<stop offset="1" stop-color="#9571F6"/>
</linearGradient>
<linearGradient id="paint68_linear" x1="32135.9" y1="33896.8" x2="32135.9" y2="25424.7" gradientUnits="userSpaceOnUse">
<stop stop-color="#E38DDD"/>
<stop offset="1" stop-color="#9571F6"/>
</linearGradient>
<linearGradient id="paint69_linear" x1="32907.1" y1="33885.7" x2="32907.1" y2="25416.4" gradientUnits="userSpaceOnUse">
<stop stop-color="#E38DDD"/>
<stop offset="1" stop-color="#9571F6"/>
</linearGradient>
<linearGradient id="paint70_linear" x1="31306.9" y1="34085.3" x2="31306.9" y2="25565.7" gradientUnits="userSpaceOnUse">
<stop stop-color="#E38DDD"/>
<stop offset="1" stop-color="#9571F6"/>
</linearGradient>
<linearGradient id="paint71_linear" x1="33713.9" y1="33885.7" x2="33713.9" y2="25416.4" gradientUnits="userSpaceOnUse">
<stop stop-color="#E38DDD"/>
<stop offset="1" stop-color="#9571F6"/>
</linearGradient>
</defs>
</svg>
