<svg width="64" height="64" viewBox="0 0 64 64" fill="none" xmlns="http://www.w3.org/2000/svg">
<path d="M9.24499 3.24976C4.84534 3.24976 1.96875 6.13879 1.96875 9.93603C1.96875 13.6494 4.75964 16.6208 9.07617 16.6208H9.15967C13.6454 16.6208 16.437 13.6494 16.437 9.93603C16.3531 6.13879 13.6454 3.24976 9.24499 3.24976Z" fill="white"/>
<path d="M2.729 21.9043H15.5911V60.6003H2.729V21.9043Z" fill="white"/>
<path d="M47.1614 20.9961C40.2228 20.9961 35.5701 27.5161 35.5701 27.5161V21.9043H22.7076V60.6003H35.5693V38.991C35.5693 37.8341 35.6532 36.6791 35.993 35.8518C36.9229 33.5417 39.0388 31.1486 42.5922 31.1486C47.2463 31.1486 49.1078 34.6971 49.1078 39.8992V60.6003H61.9687V38.4127C61.9687 26.527 55.623 20.9961 47.1614 20.9961Z" fill="white"/>
</svg>
