<svg width="100" height="100" viewBox="0 0 100 100" fill="none" xmlns="http://www.w3.org/2000/svg">
<g clip-path="url(#clip0)">
<path d="M92.7734 10.7941C78.2137 10.7941 63.7434 7.14258 50.9268 0.23418C50.348 -0.0777344 49.652 -0.0777344 49.0732 0.23418C36.2566 7.14258 21.7863 10.7941 7.22656 10.7941C6.14805 10.7941 5.27344 11.6686 5.27344 12.7473V38.8209C5.27344 52.4318 9.48555 65.4586 17.4545 76.4928C25.4234 87.527 36.4652 95.6215 49.3857 99.9012C49.5852 99.9672 49.7926 100 50 100C50.2074 100 50.4146 99.9672 50.6143 99.9012C63.5348 95.6215 74.5768 87.5271 82.5455 76.4928C90.5143 65.4584 94.7266 52.4318 94.7266 38.8209V12.7473C94.7266 11.6686 93.8521 10.7941 92.7734 10.7941ZM90.8203 38.8209C90.8203 51.6057 86.8639 63.8414 79.3787 74.2059C72.0201 84.3949 61.8721 91.9152 50 95.9861C38.1279 91.9154 27.9799 84.3949 20.6213 74.2059C13.1361 63.8414 9.17969 51.6055 9.17969 38.8209V14.6793C23.3727 14.3748 37.4236 10.758 50 4.16523C62.5764 10.758 76.6273 14.3748 90.8203 14.6793V38.8209Z" fill="white"/>
<path d="M49.1773 12.8465C39.4172 17.3793 29.0406 20.2891 18.3359 21.4955C17.348 21.6068 16.6016 22.4424 16.6016 23.4363V38.8207C16.6016 50.0352 20.0723 60.7686 26.6383 69.8602C32.3934 77.8289 40.2129 84.0225 49.2518 87.7715C49.4914 87.8709 49.7455 87.9205 50 87.9205C50.2545 87.9205 50.5086 87.8709 50.7482 87.7715C59.7871 84.0225 67.6066 77.8289 73.3617 69.8602C79.9279 60.7686 83.3984 50.0352 83.3984 38.8207V23.4363C83.3984 22.4424 82.652 21.6068 81.6641 21.4955C70.9594 20.2891 60.5828 17.3793 50.8227 12.8465C50.3008 12.6043 49.6992 12.6043 49.1773 12.8465ZM79.4922 25.167V38.8207C79.4922 49.209 76.2773 59.1514 70.1951 67.5731C65.0234 74.7342 58.0535 80.3471 50 83.8457C41.9465 80.3471 34.9766 74.7342 29.8049 67.5733C23.7227 59.1514 20.5078 49.2088 20.5078 38.8207V25.167C30.7188 23.843 40.6273 21.0211 50 16.767C59.3727 21.0213 69.2812 23.843 79.4922 25.167Z" fill="white"/>
<path d="M49.9959 26.8242C49.2526 26.8244 48.5737 27.2466 48.2448 27.9134L42.8221 38.9082L30.6909 40.6742C29.9551 40.7812 29.344 41.2968 29.1145 42.0039C28.885 42.7111 29.0768 43.4871 29.6092 44.0058L38.3901 52.5607L36.3211 64.6441C36.1956 65.3767 36.4969 66.1173 37.0985 66.5541C37.4387 66.8011 37.8417 66.9267 38.2463 66.9267C38.5575 66.9267 38.8696 66.8525 39.1555 66.7021L50.0049 60.9945L60.8573 66.6962C61.5155 67.0421 62.3129 66.9843 62.9141 66.547C63.5155 66.1099 63.8165 65.3693 63.6907 64.6365L61.6151 52.5543L70.3917 43.9949C70.9239 43.4757 71.1151 42.6996 70.8852 41.9925C70.6551 41.2855 70.0438 40.7705 69.3083 40.6636L57.176 38.9041L51.7475 27.9121C51.4184 27.2457 50.7397 26.8238 49.9963 26.8238C49.9963 26.8242 49.9961 26.8242 49.9959 26.8242ZM50 33.1955V48.7179L54.7258 42.2652C54.9799 42.4511 55.2784 42.5761 55.5991 42.6228L64.6979 43.9425L50 48.7179L57.6698 51.2421C57.5655 51.547 57.5354 51.8769 57.5917 52.2039L59.1583 61.323L50 48.7179L49.9692 56.8369C49.6686 56.8423 49.369 56.9154 49.095 57.0593L40.8391 61.4025L40.8561 61.3031L50 48.7179L42.3106 51.1841C42.211 50.9224 42.0581 50.6804 41.8514 50.4793L35.1696 43.9695L35.3188 43.9478L50 48.7179L45.3223 42.2279C45.5497 42.0498 45.7397 41.8234 45.8713 41.5568L49.9977 33.1904L50 33.1955Z" fill="white"/>
</g>
<defs>
<clipPath id="clip0">
<rect width="100" height="100" fill="white"/>
</clipPath>
</defs>
</svg>
