<svg width="24" height="34" viewBox="0 0 24 34" fill="none" xmlns="http://www.w3.org/2000/svg">
<path d="M19.2325 9.48119C16.8217 5.50207 14.1404 2.05821 12.7565 0.359473C12.5713 0.131975 12.2934 -8.86483e-05 12.0001 4.46455e-08C11.7067 4.46455e-08 11.4289 0.132064 11.2437 0.359561C9.85986 2.05883 7.17849 5.50384 4.76772 9.48332C1.66097 14.6118 0.0856934 18.852 0.0856934 22.0857C0.0856934 28.6553 5.43043 34 12 34C18.5696 34 23.9144 28.6553 23.9144 22.0857C23.9144 18.8498 22.3393 14.6091 19.2325 9.48119ZM13.635 29.6117C12.9393 29.7897 12.2171 29.8798 11.4882 29.8798C7.03702 29.8798 3.41577 26.5157 3.41577 22.3808C3.41577 21.3825 3.67919 20.2162 4.19848 18.9144C4.2862 18.6944 4.53614 18.5689 4.78253 18.6222C5.02874 18.6752 5.19407 18.8898 5.1687 19.1233C5.13837 19.4025 5.12293 19.6752 5.12293 19.9336C5.12293 24.4334 8.7488 28.2016 13.557 28.6983C13.7963 28.723 13.983 28.902 14.0021 29.1251C14.0213 29.3481 13.8671 29.5523 13.635 29.6117Z" fill="#00B2FF"/>
</svg>
