<svg width="64" height="64" viewBox="0 0 64 64" fill="none" xmlns="http://www.w3.org/2000/svg">
<path d="M64 32C64 14.325 49.675 0 32 0C14.325 0 0 14.325 0 32C0 49.675 14.325 64 32 64C32.1875 64 32.375 64 32.5625 63.9875V39.0875H25.6875V31.075H32.5625V25.175C32.5625 18.3375 36.7375 14.6125 42.8375 14.6125C45.7625 14.6125 48.275 14.825 49 14.925V22.075H44.8C41.4875 22.075 40.8375 23.65 40.8375 25.9625V31.0625H48.775L47.7375 39.075H40.8375V62.7625C54.2125 58.925 64 46.6125 64 32Z" fill="white"/>
</svg>
