<svg width="717" height="500" viewBox="0 0 717 500" fill="none" xmlns="http://www.w3.org/2000/svg">
<g clip-path="url(#clip0)">
<path d="M156.573 4.71414C158.672 4.23771 156.196 0.78987 156.169 0C153.384 2.18154 157.125 5.65446 156.573 4.71414Z" fill="#36A9E1"/>
<path d="M128.587 26.492L128.426 24.7367L125.479 30.4288L128.587 26.492Z" fill="#36A9E1"/>
<path d="M98.583 38.8666C104.463 44.0446 108.957 33.325 115.375 33.3751L116.949 34.4659V28.3475C110.8 31.8455 104.005 38.7412 98.583 38.8666Z" fill="#36A9E1"/>
<path d="M76.0328 31.7452C78.1991 33.8139 73.5975 35.3059 80.0693 30.9679C79.7354 30.8843 79.411 30.771 79.1005 30.6294C78.1164 31.0873 77.0896 31.4607 76.0328 31.7452V31.7452Z" fill="#36A9E1"/>
<path d="M79.1544 30.6294C82.2221 29.1374 76.0867 29.3756 79.1544 30.6294V30.6294Z" fill="#36A9E1"/>
<path d="M64.3811 38.6284L67.9332 34.3781C66.2917 33.3124 61.8516 34.8922 62.8876 33.1244C60.7483 34.8044 60.0352 35.9829 60.4792 36.7728C60.9232 37.5627 62.3898 38.0642 64.3811 38.6284Z" fill="#36A9E1"/>
<path d="M62.3359 45.2733L64.2734 43.2046C63.52 42.8159 62.7665 42.8786 62.3359 45.2733Z" fill="#36A9E1"/>
<path d="M68.3771 38.9544L64.3407 43.2046C65.5651 43.8942 66.7087 45.8626 66.332 41.4243C66.8164 43.4679 66.8971 41.2237 68.3771 38.9544Z" fill="#36A9E1"/>
<path d="M71.6735 38.6911C74.8353 39.017 78.4009 38.5782 75.0775 42.6028C79.0332 40.4213 80.0289 38.4152 79.2081 37.4122C78.3874 36.4092 75.7234 36.4343 71.6735 38.6911Z" fill="#36A9E1"/>
<path d="M100.198 46.0757L104.234 46.6525L105.916 43.3927C105.041 45.01 99.054 44.17 100.198 46.0757Z" fill="#36A9E1"/>
<path d="M30.0714 56.0557C30.4751 56.7327 31.6725 56.996 32.9642 57.3094C34.2112 57.4957 35.419 57.8638 36.5432 58.4002L37.781 56.181L39.1265 54.0371C38.4672 54.2252 37.6868 54.5135 36.8661 54.8144C36.0453 55.1154 35.1977 55.4915 34.3635 55.7798C32.6278 56.3064 31.0402 56.6826 30.0714 56.0557Z" fill="#36A9E1"/>
<path d="M36.5431 58.3626C35.9377 59.4408 35.3591 60.5692 34.8075 61.7227C34.2558 62.8761 33.7311 63.9418 33.2467 65.1956C37.9693 60.7573 38.0635 59.3405 36.5431 58.3626Z" fill="#36A9E1"/>
<path d="M65.3632 52.5326C67.2065 49.5988 69.1036 46.7653 71.0142 43.9569C68.6192 47.0035 66.157 50.1505 63.8293 53.3726L65.3632 52.5326Z" fill="#36A9E1"/>
<path d="M12.015 81.0431C11.4903 79.2753 11.0194 77.4448 10.6696 75.5642C10.8848 77.1816 11.1539 78.7488 11.4499 80.2909C11.7459 81.833 12.163 83.3124 12.5667 84.7668C12.311 83.5507 12.1092 82.3094 12.015 81.0431Z" fill="#36A9E1"/>
<path d="M7.15791 98.6459C5.96043 96.9784 4.46695 97.6931 3.12148 98.4704C1.776 99.2478 0.69962 100.05 -2.83046e-05 98.3576C-0.403671 103.373 1.776 107.51 3.83458 110.995C2.87929 107.372 3.65967 103.373 7.15791 98.6459Z" fill="#36A9E1"/>
<path d="M6.98302 116.6C6.09228 114.663 5.05826 112.786 3.88843 110.983C4.44723 113.05 5.50571 114.972 6.98302 116.6V116.6Z" fill="#36A9E1"/>
<path d="M24.8643 74.6239C23.9297 74.5753 22.9928 74.6728 22.0927 74.9122C20.4204 75.4371 18.9572 76.4203 17.8948 77.7332C19.7112 77.4699 21.5007 77.2442 23.2767 77.0812L24.8643 74.6239Z" fill="#36A9E1"/>
<path d="M23.4516 77.0311H23.2767C22.4829 78.3601 21.8236 79.5386 21.2854 80.3786L20.1821 82.347L21.1643 80.5667C21.7429 79.6891 22.4694 78.5231 23.4516 77.0311Z" fill="#36A9E1"/>
<path d="M25.268 73.9719L24.8644 74.5863C25.3891 74.5988 25.564 74.5236 25.268 73.9719Z" fill="#36A9E1"/>
<path d="M49.8633 56.9458C49.056 58.9268 47.5491 61.5221 47.3742 63.4779C47.1992 65.4338 48.2756 66.4995 52.191 65.8099C52.191 63.992 51.1415 63.2272 50.2535 62.2242C49.3655 61.2212 48.6793 59.9423 49.8633 56.9458Z" fill="#36A9E1"/>
<path d="M31.9551 73.9719C33.6445 72.2253 35.4415 70.5718 37.337 69.0196C36.3682 68.3801 34.1348 68.3425 34.646 66.0732C33.5752 68.6519 32.6765 71.2898 31.9551 73.9719V73.9719Z" fill="#36A9E1"/>
<path d="M31.1343 77.6078C31.3496 76.3541 31.6591 75.2006 31.9551 73.9845L30.0714 76.003C30.4078 76.5421 30.7711 77.0812 31.1343 77.6078Z" fill="#36A9E1"/>
<path d="M12.1093 105.93C13.6431 108.952 13.5355 111.873 13.6835 115.158C14.7577 111.686 15.5803 108.151 16.1457 104.576C14.8002 103.887 12.4994 101.918 12.1093 105.93Z" fill="#36A9E1"/>
<path d="M16.361 92.0637C16.361 92.2894 16.361 92.5652 16.361 92.7783C16.8992 92.4774 17.1144 92.1891 16.361 92.0637Z" fill="#36A9E1"/>
<path d="M15.3384 145.436C15.5672 145.248 15.8497 145.06 16.0919 144.86H15.3115L15.3384 145.436Z" fill="#36A9E1"/>
<path d="M17.0068 104.062C17.5284 103.074 17.7643 101.976 17.6912 100.876C17.618 99.7768 17.2384 98.7142 16.5897 97.7934C16.5897 98.8842 16.5897 99.9875 16.4416 101.116C16.2936 102.244 16.2533 103.36 16.0784 104.526C16.6838 104.877 17.074 104.977 17.0068 104.062Z" fill="#36A9E1"/>
<path d="M9.09539 125.564C9.53887 124.887 9.94309 124.188 10.3063 123.47C10.6965 122.718 11.0867 121.928 11.45 121.138C10.6206 121.892 9.88906 122.733 9.2703 123.646C8.73211 124.574 8.50338 125.376 9.09539 125.564Z" fill="#36A9E1"/>
<path d="M14.9348 93.4554C14.9208 93.2926 14.9208 93.1291 14.9348 92.9664C13.6566 93.7061 14.141 93.6936 14.9348 93.4554Z" fill="#36A9E1"/>
<path d="M14.9348 93.4554C15.2261 94.9765 15.7853 96.4423 16.5898 97.7934C16.6731 96.12 16.6147 94.4431 16.4148 92.7783C15.9584 93.0683 15.4601 93.2962 14.9348 93.4554V93.4554Z" fill="#36A9E1"/>
<path d="M45.1407 149.498C44.0112 149.532 42.8924 149.286 41.8992 148.783C40.9061 148.281 40.0744 147.541 39.4897 146.64C39.1543 146.157 38.8917 145.634 38.7093 145.085C38.5478 144.5 38.4754 143.896 38.494 143.292C38.5683 141.89 39.0623 140.535 39.9202 139.381C38.0769 137.199 33.8521 137.124 29.1564 138.327C24.3709 139.644 19.9374 141.887 16.1456 144.91C17.0798 144.816 18.022 145 18.8366 145.436C19.8995 146.013 20.9893 147.267 22.7788 149.737C23.3625 148.853 23.8151 147.9 24.1243 146.903C24.6356 145.649 25.1738 144.32 25.7792 143.142C27.0036 140.81 28.4702 139.381 30.6633 141.286C33.6234 147.818 30.0175 147.029 28.4702 150.727C30.7306 148.897 33.0314 150.727 35.6281 152.658C38.2249 154.589 41.1311 156.419 44.6966 154.94L40.9562 149.85C42.1402 149.536 44.4006 151.216 45.1407 149.498Z" fill="#36A9E1"/>
<path d="M15.2845 134.24L14.6387 131.958C14.3276 133.316 13.7678 134.614 12.9838 135.795C12.1899 137.049 11.1674 138.566 9.76807 140.496C12.2707 144.258 13.8987 144.797 15.3114 144.897L14.8674 139.167L14.6521 136.321C14.6521 135.369 14.6521 134.416 14.6521 133.45L15.2845 134.24Z" fill="#36A9E1"/>
<path d="M14.1813 121.489C18.6213 123.445 20.9087 128.611 25.6044 125.251C25.518 124.054 25.2273 122.877 24.7433 121.765C24.405 121.087 23.8919 120.497 23.2498 120.048C21.7554 119.267 20.5711 118.058 19.8726 116.6C20.2628 122.154 19.7246 121.326 18.6213 120.148C17.5181 118.969 16.0111 117.314 14.706 121.402C14.0446 119.368 13.6958 117.258 13.67 115.133C13.0419 117.161 12.3009 119.157 11.45 121.113C11.5338 121.016 11.6285 120.928 11.7325 120.85V120.85C12.2976 120.361 12.634 120.198 12.3111 120.75C12.3621 120.826 12.3943 120.911 12.4052 121.001C12.9958 121.088 13.5678 121.261 14.1005 121.515C13.1856 124.799 12.93 122.041 12.4052 121.001C12.1864 120.931 11.9612 120.881 11.7325 120.85C12.1092 122.793 12.6071 124.611 13.078 126.467L14.5984 131.933C14.8598 130.56 14.9276 129.161 14.8002 127.771C14.8002 126.943 14.6656 126.028 14.5445 124.987C14.4235 123.947 14.3024 122.869 14.1813 121.489Z" fill="#36A9E1"/>
<path d="M53.9535 76.3415C53.5787 76.2904 53.2355 76.1172 52.9848 75.8526C52.8637 76.6675 52.9444 77.0812 53.9535 76.3415Z" fill="#36A9E1"/>
<path d="M48.8946 77.5702C48.8946 76.6048 48.1142 75.0627 50.3746 73.483C53.0656 72.9188 51.8412 74.9499 52.9848 75.8526C53.2865 74.7683 53.4224 73.6498 53.3885 72.5301C53.2001 71.5396 52.3256 70.9002 49.6615 71.828L49.4731 72.7683C48.228 73.3245 46.931 73.7736 45.5982 74.1098C44.2527 74.5236 42.7323 74.8872 41.3734 75.1755C38.6824 75.8275 36.5297 76.1535 36.57 75.6143C40.5925 76.6704 44.7238 77.326 48.8946 77.5702V77.5702Z" fill="#36A9E1"/>
<path d="M28.4164 96.7402C28.2645 99.9126 28.3229 103.091 28.5913 106.256C30.1386 104.902 31.6725 103.623 33.287 102.407L30.9459 102.194C32.991 97.3922 30.0041 97.7934 28.4164 96.7402Z" fill="#36A9E1"/>
<path d="M13.253 146.828L8.38232 146.214C10.8311 147.743 13.2664 149.21 15.8632 150.589L14.5177 148.734L13.253 146.828Z" fill="#36A9E1"/>
<path d="M16.0516 158.501L11.894 158.839L14.9886 161.484L16.0516 158.501Z" fill="#36A9E1"/>
<path d="M518.695 156.419C519.287 155.604 519.879 154.789 520.538 153.912C519.763 154.634 519.138 155.485 518.695 156.419V156.419Z" fill="#36A9E1"/>
<path d="M502.549 167.051L503.424 168.806C503.41 167.503 503.208 166.75 502.549 167.051Z" fill="#36A9E1"/>
<path d="M218.626 341.023C222.824 344.333 227.924 349.574 227.009 345.286L225.367 341.161C224.295 341.574 223.142 341.775 221.981 341.751C220.821 341.728 219.679 341.48 218.626 341.023V341.023Z" fill="#36A9E1"/>
<path d="M393.417 262.801L391.816 262.161C391.816 263.842 391.816 265.421 391.736 266.826C392.247 265.622 392.879 264.243 393.417 262.801Z" fill="#36A9E1"/>
<path d="M386.475 246.339L392.018 246.565C390.198 246.192 388.323 246.116 386.475 246.339V246.339Z" fill="#36A9E1"/>
<path d="M637.917 152.294L642.613 149.411C637.971 147.693 639.102 150.451 637.917 152.294Z" fill="#36A9E1"/>
<path d="M68.7942 262.274C68.9617 264.987 69.7314 267.638 71.0546 270.06C71.0142 265.622 72.5346 261.158 68.7942 262.274Z" fill="#36A9E1"/>
<path d="M540.343 197.104C540.661 196.63 540.829 196.083 540.829 195.524C540.829 194.966 540.661 194.418 540.343 193.944C539.536 195.323 539.442 196.427 540.343 197.104Z" fill="#36A9E1"/>
<path d="M76.3827 277.294C76.3827 276.617 76.3019 276.041 76.2885 275.414C74.1509 274.001 72.3656 272.175 71.0546 270.06C71.068 273.32 71.9695 276.505 76.3827 277.294Z" fill="#36A9E1"/>
<path d="M29.6678 203.736C28.3223 201.605 29.0489 203.561 29.6678 203.736V203.736Z" fill="#36A9E1"/>
<path d="M41.7097 186.81C42.0801 186.978 42.4826 187.076 42.8937 187.097C43.3048 187.119 43.7165 187.064 44.1047 186.936C43.3126 187.135 42.4729 187.091 41.7097 186.81V186.81Z" fill="#36A9E1"/>
<path d="M113.182 280.316L113.289 280.492C113.612 279.476 113.545 279.651 113.182 280.316Z" fill="#36A9E1"/>
<path d="M30.031 199.624C29.894 200.733 29.9166 201.855 30.0983 202.959C30.2148 201.849 30.1922 200.729 30.031 199.624V199.624Z" fill="#36A9E1"/>
<path d="M28.2549 200.84C28.0935 200 27.9186 199.348 27.7571 198.721C26.9095 198.709 26.6134 199.135 28.2549 200.84Z" fill="#36A9E1"/>
<path d="M31.3361 206.758C30.7287 205.567 30.3116 204.3 30.0983 202.997C30.0176 203.548 29.8695 203.837 29.6677 203.774C30.0445 204.363 30.5557 205.253 31.3361 206.758Z" fill="#36A9E1"/>
<path d="M272.419 288.653C272.338 288.716 272.311 288.829 272.23 288.904L272.58 288.979L272.419 288.653Z" fill="#36A9E1"/>
<path d="M279.321 283.726C277.518 289.707 275.379 289.443 272.594 288.979C274.518 292.741 276.469 296.502 278.446 300.188C278.814 294.722 279.106 289.234 279.321 283.726Z" fill="#36A9E1"/>
<path d="M574.815 139.017C571.969 137.539 569.015 136.248 565.975 135.155C571.518 131.783 576.47 131.131 578.811 130.416C579.981 130.065 580.573 129.689 580.358 129.012C580.143 128.335 579.187 127.345 577.008 125.878C576.389 129.163 573.873 130.717 570.28 131.632C566.688 132.548 562.073 132.886 557.337 133.776C552.601 134.667 548.107 135.82 545.133 137.676C542.16 139.531 540.72 141.938 541.702 145.11C539.698 144.872 537.572 144.621 535.54 144.483C536.98 143.994 536.886 143.23 538.446 142.766C532.069 141.8 531.329 144.91 530.844 148.445C530.36 151.981 530.051 156.118 524.669 158.137C523.078 158.679 521.376 158.88 519.69 158.726C518.506 158.488 517.955 157.786 518.627 156.419C516.784 158.927 515.17 161.296 513.609 163.691C511.523 164.807 510.501 162.638 512.627 161.51C509.397 164.13 506.397 166.713 503.545 169.17L503.356 168.806C503.216 171.97 502.734 175.112 501.917 178.185C498.338 178.322 502.186 176.229 500.571 175.339L497.517 181.494C493.225 180.241 495.324 174.599 499.158 172.492C485.852 165.296 497.073 178.159 481.802 179.15L485.542 174.448C477.617 170.599 475.599 175.364 467.19 175.326C470.015 176.429 485.623 177.307 482.192 183.789C479.985 184.065 477.617 185.043 476.312 189.318C473.285 185.557 471.092 188.453 467.58 191.174L463.907 185.945C461.081 190.095 463.382 192.427 462.79 196.289C457.96 198.796 454.045 195.436 450.479 192.791C442.756 196.552 460.193 195.9 452.484 202.382C445.07 204.313 442.473 209.065 437.495 216.7C431.992 217.54 435.948 213.064 433.365 212.525L432.598 218.995C431.615 219.458 431.01 218.004 430.701 217.264C428.682 220.838 434.145 222.643 430.122 227.106C431.467 230.391 427.431 229.865 422.816 229.764C418.201 229.664 413.156 229.915 412.227 235.043C409.684 234.416 410.882 231.369 408.985 229.589C403.266 238.804 403.751 236.961 400.333 246.803C397.535 246.728 394.79 246.69 392.005 246.565C399.028 248.257 396.229 256.093 393.35 262.864C395.534 263.804 397.782 264.612 400.078 265.283C397.871 267.703 395.691 270.186 393.431 272.568C391.884 272.179 391.641 269.86 391.668 266.888C391.371 267.568 391.115 268.263 390.901 268.969C386.703 268.455 386.448 264.493 386.771 260.381C388.412 260.958 390.094 261.635 391.749 262.224C391.816 257.836 391.48 253.197 389.139 250.238C388.862 251.33 388.249 252.324 387.376 253.097C387.376 251.918 387.215 250.94 386.65 250.589C386.085 250.238 385.91 251.843 385.398 253.899L380.016 248.734L380.999 251.379C376.693 251.856 372.468 252.42 368.19 252.796C366.118 257.711 364.638 263.34 362.175 268.643C360.961 271.382 359.436 273.992 357.628 276.429C355.643 279.002 353.253 281.281 350.537 283.187C351.465 277.182 347.537 275.301 345.061 269.709C348.169 271.903 350.295 270.236 352.488 267.854C354.681 265.471 356.888 262.249 360.372 261.397C359.863 261.604 359.3 261.67 358.752 261.586C358.203 261.502 357.692 261.271 357.281 260.923C356.87 260.574 356.576 260.122 356.434 259.621C356.293 259.12 356.31 258.591 356.484 258.099L352.192 263.277L347.806 268.305C345.855 263.691 343.769 265.985 339.867 265.359C343.137 269.371 341.697 271.715 338.979 273.659C336.262 275.602 332.319 277.119 330.516 279.363C329.63 278.017 329.355 276.398 329.749 274.862C330.261 273.433 331.727 272.204 334.741 271.402C330.059 269.308 329.225 272.655 328.364 276.241C327.503 279.827 326.682 283.526 322.295 281.758C323.708 281.194 324.664 281.344 324.569 279.589C322.376 283.563 313.24 284.19 314.142 280.843L315.487 280.291C314.25 280.554 312.796 280.918 311.451 281.357C310.105 281.795 308.424 282.247 306.836 282.786C303.614 283.905 300.469 285.207 297.418 286.685C294.677 287.987 292.172 289.679 289.991 291.7C289.104 292.424 288.403 293.323 287.937 294.331C287.472 295.34 287.254 296.433 287.3 297.53C286.494 293.664 285.968 289.752 285.725 285.82C284.259 291.023 282.685 296.301 280.976 301.542C279.267 306.783 277.424 311.948 275.473 317.202C275.473 313.541 272.782 307.949 271.1 302.533C269.418 297.116 268.732 291.863 272.203 288.979C269.634 288.528 266.552 288.077 262.274 291.487C264.05 292.164 268.678 300.74 266.606 301.818C262.637 298.558 261.386 297.731 259.96 297.079C257.385 296.06 254.928 294.799 252.627 293.317C255.318 294.408 254.941 305.855 250.918 306.156C251.214 304.413 248.55 295.349 249.707 293.969C248.496 296.038 247.258 298.119 245.994 300.238C244.729 302.357 243.437 304.288 242.105 306.319C244.204 304.025 241.002 297.079 238.459 294.295C239.105 295.286 237.113 295.549 234.597 295.687C232.081 295.825 229.215 295.762 228.004 296.439L232.31 298.533C226.928 298.245 224.722 302.47 222.394 306.582C220.066 310.695 217.658 315.133 212.047 315.145C213.312 312.826 214.375 301.091 208.939 299.925C206.949 305.472 204.571 310.891 201.821 316.148C200.048 319.422 197.935 322.525 195.511 325.414C193.548 327.926 190.945 329.942 187.936 331.281L186.039 328.009L177.872 331.394C180.644 327.257 185.649 320.863 190.546 314.657C195.471 308.237 200.288 302.119 203.584 298.546C199.548 296.151 202.387 294.784 196.52 295.135C194.462 292.126 199.655 290.559 201.324 290.384L194.596 289.431L191.273 288.954C190.156 288.779 189.066 288.553 187.963 288.365C188.407 294.935 177.401 294.634 177.563 300.013C180.079 299.047 182.675 297.956 185.191 296.916C187.707 295.875 190.21 294.897 192.672 293.706C192.941 296.978 190.762 301.668 187.089 305.203C183.415 308.739 178.208 311.409 173.23 310.381C172.086 308.977 172.88 306.118 173.876 303.322C174.872 300.527 176.096 297.793 176.083 296.703C175.383 297.781 173.096 298.696 170.943 299.06C168.79 299.423 166.785 299.26 166.53 298.408C167.875 297.442 169.315 296.427 170.674 295.411C168.454 293.919 166.355 295.787 164.027 297.116C161.699 298.445 159.21 299.135 157.811 295.436C157.044 295.01 156.64 292.628 156.465 290.86C156.291 289.092 156.143 287.901 155.12 289.606C153.479 297.129 146.59 319.496 141.087 323.458C138.944 321.184 137.046 318.719 135.422 316.098C133.014 312.274 131.601 307.874 131.803 305.617C132.287 302.119 135.987 300.539 139.297 298.646C142.607 296.753 145.581 294.697 146.294 292.064C144.945 293.323 143.183 294.126 141.288 294.346C140.912 291.963 145.755 290.722 142.244 288.716C136.687 293.067 136.472 282.021 136.472 291.224C135.661 290.96 134.935 290.509 134.363 289.913C133.791 289.316 133.392 288.594 133.202 287.813C132.76 285.962 131.836 284.239 130.511 282.798C129.166 284.792 125.318 286.046 121.026 286.271C116.734 286.497 112.145 285.757 109.751 284.253C111.419 283.513 112.63 281.319 113.168 280.278C110.707 276.528 108.614 272.58 106.912 268.48C105.259 264.57 103.19 260.823 100.736 257.297C101.624 255.667 100.574 250.765 104.301 250.777C102.418 250.313 99.6729 250.527 97.7892 248.157C99.5653 240.246 102.458 253.109 106.05 245.649C102.418 247.492 96.7801 242.34 92.2055 240.108C87.5098 244.458 96.9012 248.884 101.516 250.99C97.4548 253.341 92.6226 254.253 87.9 253.561C82.3496 252.909 77.0868 250.888 72.6557 247.706C66.0763 241.876 75.4543 241.901 73.5706 241.324C69.9917 234.403 64.8385 233.501 60.4388 232.397C56.0391 231.294 52.2314 230.203 51.6932 223.007C54.0881 215.96 61.4613 217.891 64.4752 215.095C66.5533 217.126 67.735 219.812 67.7851 222.618C68.0004 225.125 67.8793 227.482 69.1306 229.376L68.5251 223.358C71.2161 224.323 74.7681 227.445 74.7277 230.241C75.6965 227.269 72.5481 221.665 68.9557 215.196C67.2604 211.936 65.3363 208.513 63.9236 205.078C62.5447 201.915 61.6392 198.591 61.2326 195.198C58.6628 194.07 55.3663 191.512 53.994 193.944L56.2678 197.041C53.5769 201.956 47.5491 192.929 47.6298 198.094C44.7887 196.343 42.0904 194.399 39.557 192.277C36.9331 189.81 35.3928 186.519 35.238 183.049L40.7814 179.789C39.0592 180.491 38.965 185.431 41.5617 186.698C39.6646 185.757 40.6468 182.422 40.9966 179.376C41.3465 176.329 41.3465 173.395 36.7853 172.969C35.8883 175 35.0317 177.056 34.2154 179.137C31.8339 177.094 28.4703 174.95 25.6582 172.38C22.8462 169.809 20.9221 166.675 20.9894 163.127C18.2984 165.334 18.6079 165.634 18.8097 166.286C19.0116 166.938 19.1461 167.691 16.2399 171.013C20.1687 167.803 21.0836 172.267 22.4425 176.028C23.8014 179.789 24.9451 183.463 28.4703 178.862C25.1604 182.447 24.9989 184.83 25.2007 187.224C25.6863 190.418 25.1234 193.674 23.5862 196.565C24.528 196.101 25.2546 195.211 25.8869 195.161C26.5193 195.11 27.0171 195.913 27.7571 198.696C28.5294 198.772 29.2886 198.936 30.0176 199.185C30.0176 199.361 30.0176 199.436 30.0176 199.599C30.0176 199.461 30.0848 199.348 30.1117 199.21C30.5154 199.323 30.5827 199.323 30.1117 199.072C30.2823 197.68 30.9015 196.369 31.8878 195.311C34.7267 195.75 37.0275 197.981 39.0726 200.326C40.0952 201.492 41.037 202.696 41.9654 203.699C42.7436 204.584 43.6871 205.332 44.7505 205.905C45.3291 209.215 41.925 205.642 40.7141 208.124L46.096 210.632C42.0596 212.889 43.1763 221.753 37.0678 215.835C37.5791 216.913 38.0904 218.004 38.6286 219.057L40.3643 222.167C40.2332 224.627 40.6312 227.086 41.5348 229.401C42.2506 231.488 43.6652 233.307 45.5713 234.591C46.4324 237.926 54.4514 239.343 49.7557 238.603C52.5274 241.286 55.3932 243.832 58.1784 246.427L57.2365 247.091C58.6634 249.432 60.4341 251.576 62.4974 253.46C64.5425 255.441 66.6953 257.435 68.7404 259.466C72.7768 263.591 76.154 268.343 76.2481 275.414C79.3293 277.671 82.7064 279.802 85.1552 285.231L82.4642 288.328C86.3527 291.186 87.3214 301.266 91.9768 300.564C89.0436 305.466 92.1248 310.594 97.7085 316.073C100.718 318.917 103.917 321.581 107.288 324.047C110.679 326.555 114.016 328.962 116.478 331.181L119.99 327.42C127.094 332.435 135.785 334.88 145.473 335.519L146.294 331.181C150.572 330.529 154.932 332.322 159.856 334.253C164.781 336.184 170.149 338.265 175.423 338.34C174.603 339.97 171.912 339.368 170.041 338.19C176.177 343.694 182.837 341.951 189.241 340.095C192.267 338.967 195.391 338.082 198.579 337.45C200.054 337.231 201.557 337.231 203.032 337.45C204.573 337.649 206.048 338.163 207.351 338.954C208.304 338.259 209.468 337.863 210.678 337.825C211.887 337.786 213.078 338.107 214.079 338.741C213.831 338.762 213.596 338.854 213.406 339.005C213.782 339.036 214.16 339.036 214.536 339.005C215.882 339.707 217.133 340.459 218.573 341.073C217.57 340.207 216.426 339.496 215.182 338.967C218.076 338.574 220.892 337.784 223.537 336.622L225.314 341.211C225.569 341.123 225.784 341.123 226.04 341.023C229.363 342.515 228.314 338.616 226.323 335.231C227.794 334.384 229.085 333.292 230.13 332.009C231.785 335.644 233.777 334.792 235.849 333.99C237.921 333.187 240.114 332.447 242.388 336.196C243.155 334.102 246.935 332.823 250.541 331.018C254.147 329.213 257.484 326.693 257.47 322.493C257.78 323.533 258.816 323.897 257.161 324.235C258.88 324.474 260.624 324.52 262.355 324.373C264.095 324.153 265.674 323.307 266.754 322.016L269.445 327.57C271.302 324.448 273.118 321.377 274.827 318.23C280.061 320.737 282.523 322.38 279.254 327.871C281.58 325.192 284.335 322.862 287.421 320.963C289.17 319.822 290.744 318.731 294.148 314.218L294.848 317.979C298.037 317.039 301.4 310.607 304.266 313.114C306.607 314.368 310.011 314.443 314.048 313.691C318.728 312.768 323.325 311.51 327.798 309.93C337.863 306.733 348.922 302.495 359.135 302.019C354.977 297.543 357.534 297.856 360.736 298.257C363.938 298.658 367.853 299.072 366.118 294.947C368.351 296.953 371.5 297.254 369.724 300.602C373.518 297.455 377.285 296.841 380.487 295.988C383.69 295.135 386.165 293.656 387.322 288.942C389.65 290.873 387.417 293.343 389.072 294.333C389.489 293.48 390.673 290.935 392.381 291.926C394.09 292.916 392.233 294.546 391.426 296.239C400.118 291.537 396.7 283.701 393.377 276.592C399.607 277.671 401.517 276.028 401.921 269.972C404.746 271.414 408.648 272.405 403.858 275.978C407.061 274.812 424.04 269.471 420.811 263.917C422.601 264.757 425.13 262.011 425.494 260.958C432.221 257.598 433.042 257.673 439.043 253.435L436.715 253.598C434.872 245.812 440.926 249.072 445.447 245.273L445.756 246.001C453.103 244.747 453.937 243.405 454.825 242.239C455.713 241.073 456.641 239.932 464.109 238.904L460.664 235.431C458.135 230.943 461.485 230.604 466.046 230.416C470.607 230.228 476.232 230.228 478.25 226.555L474.281 225.89C475.626 220.8 492.566 230.554 496.898 229.175C498.243 229.363 496.575 231.143 495.902 232.385C508.846 230.955 493.211 226.605 499.158 220.838C502.509 222.643 502.872 228.724 507.85 226.078C509.842 226.379 511.456 221.928 513.838 217.515C516.219 213.102 519.314 208.739 524.44 209.077C521.44 207.999 518.466 206.908 520.323 203.197C522.395 201.166 527.198 200.802 531.302 199.799C535.406 198.796 538.635 197.292 538.029 192.766C538.833 192.871 539.564 193.256 540.074 193.844C541.581 191.476 543.257 189.206 545.093 187.049C546.936 184.654 548.537 182.159 548.511 179.764C554.148 186.133 557.444 182.435 561.319 179.438C565.194 176.442 569.904 174.147 569.702 181.582C573.098 181.344 576.511 181.436 579.887 181.858L579.282 183.3C581.893 184.312 584.793 184.475 587.516 183.764C589.759 182.983 591.857 181.879 593.732 180.492C595.252 182.009 593.449 182.999 593.046 183.638C595.737 185.181 597.809 186.497 599.625 187.337C601.17 188.129 602.865 188.636 604.617 188.829C606.425 188.961 608.245 188.809 609.999 188.378C612.084 187.901 614.52 187.274 617.695 186.472L616.82 191.362C618.691 190.547 622.135 193.869 626.723 197.267C631.244 200.827 636.814 204.514 643.649 204.338C643.121 205.043 642.338 205.546 641.443 205.755C645.156 205.855 648.439 207.61 651.453 209.83C654.409 212.127 657.192 214.611 659.781 217.264C662.351 219.684 664.867 221.652 667.612 222.204C669.061 222.495 670.571 222.373 671.945 221.853C673.782 221.153 675.445 220.107 676.829 218.781L687.027 219.596C682.372 216.086 683.798 214.669 686.126 213.528C688.454 212.387 691.656 211.56 690.351 209.077C695.073 210.594 697.778 219.634 692.288 217.515L692.019 216.324C690.243 218.004 690.028 219.471 690.674 220.8C691.03 221.509 691.518 222.154 692.113 222.706C692.768 223.362 693.459 223.986 694.185 224.574C697.145 227.006 700.509 229.238 698.464 231.733C700.872 233.225 703.308 234.692 705.528 236.384C707.748 238.077 709.968 239.794 712.107 241.562C714.246 243.33 716.399 245.06 718.404 246.941L724.324 252.608C726.261 254.514 728.226 256.369 730.123 258.275C732.02 260.181 733.81 262.149 735.666 264.042C737.523 265.935 739.393 267.803 741.277 269.584C743.161 271.364 744.937 273.345 746.82 275.063L750.332 268.305L755.485 273.521C755.674 276.028 753.158 279.188 749.552 275.527C749.054 277.884 751.274 278.711 753.83 278.862C755.873 279.047 757.933 278.762 759.831 278.034C762.361 282.635 760.019 283.35 757.355 283.262C754.691 283.175 751.691 282.247 752.714 283.388L756.091 285.895V284.641C760.759 284.993 763.397 283.099 767.581 287.726C769.276 291.487 765.523 292.101 766.37 293.393C765.967 293.731 766.128 294.27 767.81 295.261L773.474 302.257L775.587 295.988C780.605 297.141 781.238 302.508 783.565 295.261C783.107 296.664 783.037 298.152 783.363 299.586C783.664 301.233 784.213 302.833 784.992 304.338C786.834 307.795 789.091 311.046 791.719 314.03C796.711 320.512 802.335 326.254 802.079 328.661C805.19 329.654 807.971 331.382 810.152 333.676C811.221 334.806 812.193 336.014 813.058 337.287C813.516 337.939 813.96 338.616 814.404 339.305C814.848 339.995 815.211 340.747 815.628 341.487C815.776 339.456 821.01 335.218 823.58 340.685C816.987 343.129 817.122 346.138 818.063 349.574C818.655 351.372 819.061 353.22 819.274 355.09C819.409 357.259 818.659 359.395 817.175 361.071C819.194 357.911 821.508 361.184 823.795 364.155C825.006 365.634 826.082 367.039 827.374 367.515C828.666 367.992 830.065 367.515 831.545 365.183C832.016 367.565 830.832 368.079 829.338 368.581C828.428 368.744 827.574 369.113 826.851 369.655C826.129 370.197 825.56 370.896 825.194 371.69C829.85 375.639 830.966 381.557 831.007 387.425V389.631C831.007 390.359 830.913 391.086 830.872 391.826C830.832 392.565 830.792 393.267 830.765 393.995C830.738 394.722 830.617 395.424 830.59 396.138C830.482 397.555 830.509 398.959 830.428 400.326C830.348 401.693 830.59 403.084 830.684 404.438C831.825 404.401 832.96 404.266 834.074 404.037C834.818 403.912 835.584 403.974 836.294 404.216C837.003 404.459 837.63 404.873 838.111 405.416C835.045 407.391 831.789 409.096 828.383 410.507C828.706 411.585 831.074 412.45 832.716 413.491C833.483 414.005 834.061 414.569 833.926 415.158C833.792 415.747 833.106 416.412 831.236 416.963C832.89 416.813 835.433 416.462 835.541 418.117C831.747 423.195 828.666 427.896 825.302 432.786C821.86 437.929 817.881 442.742 813.421 447.154C811.006 449.432 808.402 451.528 805.631 453.423C802.762 455.344 799.681 456.974 796.442 458.287C789.504 461.114 781.855 462.073 774.362 461.058C779.26 462.738 777.053 463.954 774.362 465.145C776.461 465.145 776.071 469.07 777.376 471.076C772.667 470.562 768.039 469.91 763.477 469.095C763.572 472.48 760.45 473.571 757.423 474.511C754.395 475.451 751.435 476.254 751.664 479.376C752.848 478.699 754.019 478.009 755.176 477.307C753.723 481.495 756.629 484.917 760.41 488.378C764.19 491.838 768.752 495.248 769.909 499.799C771.658 494.91 776.717 496.552 782.381 497.292C788.046 498.032 794.275 497.969 796.59 490.384C799.698 491.111 796.078 493.957 798.258 495.399C799.038 490.597 801.608 488.591 808.147 487.274L808.026 488.528C814.453 484.776 821.096 481.357 827.926 478.285C829.527 477.545 831.141 476.78 832.823 475.928C834.505 475.075 836.227 474.16 838.044 473.157C842.275 470.776 846.257 468.031 849.938 464.957C848.323 464.331 846.722 463.704 845.134 463.052C845.887 462.437 846.697 461.887 847.556 461.409C848.172 461.038 848.826 460.723 849.507 460.469C850.705 460.018 851.781 459.83 852.978 459.341C852.333 457.222 851.458 456.833 850.489 457.209C849.254 457.927 848.161 458.839 847.26 459.905C844.906 462.199 842.417 464.293 840.963 460.03C846.735 461.196 852.319 455.153 856.732 448.633L858.401 446.201C858.925 445.386 859.45 444.584 859.975 443.806C861.065 442.264 862.047 440.772 863.15 439.506C864.128 438.31 865.289 437.254 866.595 436.372C867.823 435.574 869.27 435.117 870.766 435.055C872.111 431.495 870.537 431.62 868.99 431.708C867.442 431.795 865.949 431.846 867.133 428.498C868.303 428.172 869.474 427.821 870.658 427.457C869.555 426.53 868.438 425.627 867.308 424.749C867.925 423.066 869.088 421.603 870.635 420.561C872.182 419.52 874.037 418.95 875.946 418.932C875.394 420.06 875.946 422.417 875.946 423.746C877.224 422.184 878.091 420.363 878.475 418.43C878.807 416.356 878.924 414.257 878.825 412.162C878.61 408.087 877.695 404.639 878.368 403.573C877.641 405.968 876.888 408.313 876.134 410.619C875.582 400.476 874.896 389.732 872.407 379.689C869.918 369.646 865.814 360.456 859.396 353.987L857.768 355.993C856.802 354.949 855.904 353.852 855.077 352.708C854.445 351.901 853.896 351.041 853.436 350.138C852.802 348.796 852.393 347.371 852.225 345.913C851.794 343.217 851.552 340.145 847.153 334.729L847.893 334.905C844.37 333.575 841.473 331.116 839.725 327.971C843.964 329.501 840.708 319.972 845.767 322.242C839.981 317.866 838.259 317.064 836.456 316.901C833.161 317.018 829.864 316.736 826.648 316.061L828.706 312.4C826.863 312.3 825.029 312.086 823.217 311.76C821.016 311.012 819.067 309.736 817.566 308.062C823.593 310.569 819.759 301.492 827.091 303.912C826.19 296.051 821.279 292.979 817.122 290.735C812.964 288.49 810.017 286.622 812.708 280.479C800.222 281.921 815.964 293.217 811.82 291.763C810.986 296.038 802.119 292.415 800.182 288.528C798.836 286.773 800.182 283.413 800.895 279.338C801.608 275.263 801.608 270.562 797.639 266.462C798.366 267.327 798.984 266.876 799.765 267.716C799.574 266.64 798.966 265.668 798.056 264.982C797.111 264.331 796.107 263.756 795.056 263.265C792.943 262.149 790.925 260.833 790.669 257.56C783.875 259.692 786.054 252.545 779.542 257.347L788.315 263.378C785.422 261.999 781.251 261.923 777.416 260.996C773.582 260.068 769.855 258.488 767.998 253.674C769.707 253.047 773.38 253.498 775.708 254.025C775.304 250.489 770.528 251.454 770.084 247.756C773.259 245.248 775.936 247.066 778.964 249.536C780.499 250.901 782.14 252.159 783.875 253.297C785.596 254.53 787.669 255.263 789.835 255.404C789.97 253.197 786.768 251.994 784.521 251.028C782.274 250.063 781.103 249.173 785.476 247.267C779.717 249.473 777.901 247.355 775.977 244.759C774.053 242.164 772.102 238.917 766.115 239.481L769.868 236.397C768.375 236.133 764.836 236.121 763.141 234.591L770.635 232.761C766.33 232.623 764.782 229.84 763.424 226.818C762.83 225.309 762.091 223.853 761.217 222.467C760.361 221.167 759.003 220.22 757.423 219.822C762.643 223.671 762.145 225.263 760.719 226.505C759.293 227.746 756.831 228.786 757.705 231.77C753.669 230.416 751.583 229.012 750.695 227.244C749.947 225.379 749.761 223.358 750.157 221.402C750.526 219.169 750.394 216.889 749.767 214.707C749.296 213.429 748.57 212.247 747.628 211.221C746.298 209.89 744.738 208.775 743.013 207.924C744.577 208.828 745.712 210.254 746.188 211.911C746.686 213.628 746.322 215.158 744.116 214.87C742.004 212.162 739.474 208.2 739.299 205.04C728.939 199.035 737.752 209.905 731.805 209.315C732.101 202.482 725.643 207.836 720.234 206.632L723.1 202.746C713.601 193.079 714.246 208.902 706.295 199.599C708.986 198.596 711.676 197.706 714.448 196.803L711.3 195.812L708.084 194.935L712.336 191.098C704.048 190.96 702.85 189.055 697.818 184.378C697.334 188.014 692.436 191.199 687.054 188.641C684.982 184.341 691.44 185.82 683.65 182.485C686.852 180.792 690.714 178.586 691.656 184.052C692.813 182.899 694.925 182.385 696.096 181.256C693.903 176.417 686.61 175.426 683.852 174.035C684.88 174.652 685.708 175.519 686.247 176.542H679.116L671.945 176.793C671.083 174.398 673.155 173.784 675.228 173.207C672.711 172.593 670.088 173.771 666.603 172.568C669.294 169.559 670.976 165.923 676.64 166.587L663.845 165.334C663.926 163.503 660.32 158.801 662.392 158.124C659.835 155.792 655.207 155.88 650.457 155.805C649.273 155.805 648.062 155.805 646.892 155.68C645.706 155.642 644.524 155.533 643.353 155.354C641.082 155.053 638.95 154.157 637.204 152.771C636.08 153.465 634.71 153.726 633.383 153.498C631.629 152.59 629.943 151.573 628.338 150.451C626.629 149.373 624.907 148.282 623.077 147.342C619.058 145.132 614.307 144.378 609.73 145.223C608.707 142.515 607.586 139.786 606.366 137.036C602.034 136.647 603.419 139.28 603.985 141.825C604.55 144.371 604.442 146.841 597.472 146.326C592.4 146.189 591.781 144.621 592.09 142.653C592.4 140.685 593.772 138.428 592.09 137.111C588.236 138.741 584.25 140.086 580.17 141.136C574.971 142.349 569.483 141.871 564.616 139.782C568.397 138.302 571.397 139.356 574.815 139.017ZM482.394 183.764C483.134 182.021 483.901 177.696 486.686 179.225C488.596 184.629 485.717 183.4 482.394 183.764V183.764ZM377.366 260.632C377.702 258.689 379.788 258.513 382.64 259.115C381.929 259.706 381.09 260.147 380.18 260.409C379.27 260.671 378.31 260.747 377.366 260.632ZM45.652 225.677H45.9615C46.1498 229.977 46.1498 228.423 45.652 225.677ZM43.6203 217.678C43.2677 217.495 42.8522 217.448 42.4626 217.546C42.073 217.644 41.74 217.881 41.5348 218.205C42.961 218.205 43.9298 219.709 44.616 221.665C45.504 220.562 45.8134 219.27 43.6203 217.653V217.678ZM768.469 293.017V291.123C771.766 292.59 770.164 292.741 768.469 292.992V293.017Z" fill="#36A9E1"/>
<path d="M387.242 248.245C388.03 248.747 388.699 249.396 389.206 250.15C389.381 249.173 388.843 248.37 387.242 248.245Z" fill="#36A9E1"/>
<path d="M637.056 152.834C637.139 152.884 637.224 152.93 637.312 152.971C637.554 152.78 637.759 152.551 637.917 152.294L637.056 152.834Z" fill="#36A9E1"/>
<path d="M146.347 288.954C146.646 289.968 146.646 291.038 146.347 292.051C146.784 291.638 147.028 291.082 147.028 290.503C147.028 289.923 146.784 289.367 146.347 288.954V288.954Z" fill="#36A9E1"/>
<path d="M17.8679 180.542L20.8818 185.356C19.792 182.924 20.532 181.708 20.8818 180.228C19.792 180.617 18.5003 182.096 17.8679 180.542Z" fill="#36A9E1"/>
<path d="M39.2207 131.219C38.5614 130.567 39.0727 129.752 38.4134 129.1L36.0857 129.401C36.3952 132.422 38.3865 134.353 39.2207 131.219Z" fill="#36A9E1"/>
<path d="M32.2914 171.289C36.1932 169.797 33.9597 167.151 32.2914 163.867C32.3808 164.063 32.4397 164.269 32.4663 164.481C29.4389 164.656 28.6586 165.559 29.0084 166.838C29.7427 168.526 30.863 170.045 32.2914 171.289V171.289Z" fill="#36A9E1"/>
<path d="M31.9686 163.102C31.451 162.109 31.1231 161.04 30.9998 159.942C28.5645 160.043 30.8653 161.359 31.9686 163.102Z" fill="#36A9E1"/>
<path d="M36.3278 209.641C36.5296 207.661 30.9459 210.795 32.0223 209.228C29.1026 209.391 31.9416 211.397 34.619 212.375C37.2965 213.353 39.7857 213.302 36.3278 209.641Z" fill="#36A9E1"/>
<path d="M44.9927 165.02L40.2566 167.528L44.9254 168.255C44.9119 167.164 44.9119 166.098 44.9927 165.02Z" fill="#36A9E1"/>
<path d="M50.7782 191.324C50.4553 189.493 50.1324 187.663 49.944 185.795C49.1502 186.171 48.4102 185.707 47.724 185.043C48.76 188.252 49.3924 191.988 50.7782 191.324Z" fill="#36A9E1"/>
<path d="M47.7241 185.043C47.4055 183.536 46.5351 182.18 45.2618 181.206C45.873 182.592 46.7029 183.885 47.7241 185.043V185.043Z" fill="#36A9E1"/>
<path d="M48.7735 171.565L48.2354 173.383C48.5314 174.636 48.787 175.89 49.1099 177.144C48.9619 175.238 48.8812 173.395 48.7735 171.565Z" fill="#36A9E1"/>
<path d="M79.2217 243.004L83.8636 247.204C85.7203 246.79 85.7338 244.897 83.8636 243.443C82.0741 242.866 80.177 241.374 79.2217 243.004Z" fill="#36A9E1"/>
<path d="M81.7107 221.063C81.5762 222.919 80.6209 223.571 79.6252 225.125L85.3166 222.204C84.0922 221.841 82.9082 221.452 81.7107 221.063Z" fill="#36A9E1"/>
<path d="M92.2863 234.566C94.143 234.165 101.409 238.942 96.9147 233.074C95.0849 233.488 90.5102 229.438 92.2863 234.566Z" fill="#36A9E1"/>
<path d="M142.19 306.507L140.844 305.843L135.463 314.431C137.795 311.84 140.037 309.198 142.19 306.507Z" fill="#36A9E1"/>
<path d="M220.053 290.158C213.123 288.277 218.949 296.427 212.558 293.919C211.092 296.427 217.806 295.963 216.299 298.107C220.295 295.298 222.555 296.54 220.053 290.158Z" fill="#36A9E1"/>
<path d="M216.299 298.069C215.573 298.571 214.893 299.129 214.267 299.737C215.062 299.319 215.753 298.751 216.299 298.069Z" fill="#36A9E1"/>
<path d="M463.799 180.667L464.486 182.096C466.1 183.024 467.069 182.523 468.993 181.532L463.799 180.667Z" fill="#36A9E1"/>
<path d="M521.318 147.518L519.973 148.094C521.821 149.281 523.615 150.497 525.355 151.743L521.318 147.518Z" fill="#36A9E1"/>
<path d="M599.477 130.391C596.692 129.488 592.979 129.977 589.897 129.213C596.934 129.463 598.28 137.538 599.477 130.391Z" fill="#36A9E1"/>
</g>
<defs>
<clipPath id="clip0">
<rect width="879" height="500" fill="white"/>
</clipPath>
</defs>
</svg>
