<svg width="64" height="64" viewBox="0 0 64 64" fill="none" xmlns="http://www.w3.org/2000/svg">
<g clip-path="url(#clip0)">
<path d="M63.9374 18.8162C63.7874 15.4156 63.2375 13.0778 62.4498 11.052C61.6371 8.90164 60.3869 6.97646 58.7489 5.37605C57.1484 3.75073 55.2106 2.48779 53.0852 1.68783C51.0476 0.900078 48.722 0.350166 45.3214 0.200234C41.8955 0.037605 40.8079 0 32.1187 0C23.4295 0 22.3419 0.037605 18.9286 0.187537C15.528 0.337468 13.1902 0.887869 11.1649 1.67513C9.01406 2.48779 7.08888 3.73803 5.48847 5.37605C3.86316 6.97646 2.6007 8.91434 1.80026 11.0398C1.0125 13.0778 0.462593 15.4029 0.312661 18.8035C0.150032 22.2294 0.112427 23.3171 0.112427 32.0063C0.112427 40.6954 0.150032 41.7831 0.299963 45.1963C0.449895 48.5969 1.0003 50.9348 1.78805 52.9605C2.6007 55.1109 3.86316 57.036 5.48847 58.6365C7.08888 60.2618 9.02676 61.5247 11.1522 62.3247C13.1902 63.1124 15.5153 63.6623 18.9164 63.8123C22.3292 63.9627 23.4173 63.9998 32.1065 63.9998C40.7956 63.9998 41.8833 63.9627 45.2965 63.8123C48.6971 63.6623 51.0349 63.1124 53.0602 62.3247C57.3614 60.6618 60.7619 57.2612 62.4249 52.9605C63.2121 50.9225 63.7625 48.5969 63.9125 45.1963C64.0624 41.7831 64.1 40.6954 64.1 32.0063C64.1 23.3171 64.0873 22.2294 63.9374 18.8162ZM58.174 44.9463C58.0363 48.0719 57.5113 49.7597 57.0737 50.8849C55.9983 53.6731 53.7855 55.8859 50.9973 56.9613C49.8721 57.3989 48.1721 57.9239 45.0587 58.0611C41.683 58.2116 40.6706 58.2487 32.1314 58.2487C23.5921 58.2487 22.567 58.2116 19.2035 58.0611C16.0779 57.9239 14.3901 57.3989 13.2649 56.9613C11.8774 56.4485 10.6145 55.6359 9.58937 54.5732C8.52666 53.5354 7.71401 52.2851 7.20121 50.8976C6.76363 49.7724 6.23862 48.0719 6.10139 44.959C5.95097 41.5833 5.91385 40.5704 5.91385 32.0312C5.91385 23.4919 5.95097 22.4668 6.10139 19.1038C6.23862 15.9782 6.76363 14.2904 7.20121 13.1652C7.71401 11.7772 8.52666 10.5147 9.60207 9.48916C10.6394 8.42645 11.8896 7.61379 13.2776 7.10148C14.4028 6.6639 16.1033 6.13889 19.2162 6.00117C22.5919 5.85124 23.6048 5.81364 32.1436 5.81364C40.6955 5.81364 41.7079 5.85124 45.0714 6.00117C48.197 6.13889 49.8848 6.6639 51.01 7.10148C52.3975 7.61379 53.6605 8.42645 54.6856 9.48916C55.7483 10.527 56.5609 11.7772 57.0737 13.1652C57.5113 14.2904 58.0363 15.9904 58.174 19.1038C58.324 22.4795 58.3616 23.4919 58.3616 32.0312C58.3616 40.5704 58.324 41.5706 58.174 44.9463Z" fill="white"/>
<path d="M32.1186 15.5657C23.0421 15.5657 15.6779 22.9294 15.6779 32.0064C15.6779 41.0834 23.0421 48.4471 32.1186 48.4471C41.1956 48.4471 48.5593 41.0834 48.5593 32.0064C48.5593 22.9294 41.1956 15.5657 32.1186 15.5657ZM32.1186 42.6711C26.2303 42.6711 21.4539 37.8952 21.4539 32.0064C21.4539 26.1175 26.2303 21.3417 32.1186 21.3417C38.0075 21.3417 42.7833 26.1175 42.7833 32.0064C42.7833 37.8952 38.0075 42.6711 32.1186 42.6711Z" fill="white"/>
<path d="M53.048 14.9155C53.048 17.0351 51.3294 18.7537 49.2094 18.7537C47.0898 18.7537 45.3712 17.0351 45.3712 14.9155C45.3712 12.7955 47.0898 11.0774 49.2094 11.0774C51.3294 11.0774 53.048 12.7955 53.048 14.9155Z" fill="white"/>
</g>
<defs>
<clipPath id="clip0">
<rect width="64" height="64" fill="white"/>
</clipPath>
</defs>
</svg>
