<svg width="30" height="25" viewBox="0 0 103 71" fill="none" xmlns="http://www.w3.org/2000/svg">
<path d="M93.9473 0H9.05273C4.051 0 0 3.99612 0 8.875V62.125C0 67.0329 4.08077 71 9.05273 71H93.9473C98.9072 71 103 67.0496 103 62.125V8.875C103 4.00479 98.9651 0 93.9473 0ZM92.6795 5.91667C90.8299 7.72026 59.0003 38.7607 57.9013 39.8324C56.1913 41.5088 53.9181 42.4318 51.5 42.4318C49.0819 42.4318 46.8087 41.5086 45.0931 39.8269C44.354 39.106 12.8756 8.40837 10.3205 5.91667H92.6795ZM6.03516 60.9208V10.083L32.1147 35.5158L6.03516 60.9208ZM10.3243 65.0833L36.3936 39.6884L40.8313 44.0161C43.6811 46.8099 47.4699 48.3484 51.5 48.3484C55.5301 48.3484 59.3189 46.8099 62.1631 44.0216L66.6064 39.6884L92.6757 65.0833H10.3243ZM96.9648 60.9208L70.8853 35.5158L96.9648 10.083V60.9208Z" fill="white"/>
</svg>
