<svg width="100" height="100" viewBox="0 0 100 100" fill="none" xmlns="http://www.w3.org/2000/svg">
<g clip-path="url(#clip0)">
<path d="M92.4781 27.131L92.475 27.0532C92.4315 26.0926 92.4026 25.0764 92.385 23.9457C92.3034 18.432 87.9203 13.8712 82.4058 13.5629C70.9083 12.9213 62.014 9.17222 54.4144 1.76486L54.3495 1.70307C51.8708 -0.569723 48.1316 -0.569723 45.652 1.70307L45.5872 1.76486C37.9876 9.17222 29.0933 12.9213 17.5958 13.5637C12.082 13.8712 7.69821 18.432 7.61657 23.9465C7.59979 25.0695 7.57003 26.0858 7.52654 27.0532L7.52197 27.234C7.29843 38.9581 7.02072 53.5492 11.902 66.7931C14.586 74.0761 18.6509 80.4069 23.9831 85.6109C30.0561 91.5374 38.0105 96.2424 47.625 99.5948C47.9378 99.7039 48.2628 99.7924 48.5939 99.8588C49.0609 99.9518 49.5308 99.9984 50.0008 99.9984C50.4708 99.9984 50.9415 99.9518 51.4076 99.8588C51.7388 99.7924 52.0661 99.7031 52.3804 99.5933C61.9835 96.2348 69.9295 91.5275 75.9971 85.6018C81.327 80.3962 85.3919 74.0639 88.0782 66.7793C92.9778 53.4958 92.7009 38.8772 92.4781 27.131ZM82.5729 64.7492C77.4246 78.7079 66.9151 88.2942 50.4441 94.0543C50.3853 94.0742 50.3228 94.0917 50.2579 94.1047C50.0878 94.1383 49.9146 94.1383 49.7422 94.1039C49.6781 94.091 49.6155 94.0742 49.5575 94.0543C33.0689 88.3048 22.5526 78.7239 17.4081 64.7644C12.9091 52.5567 13.1639 39.1625 13.389 27.3462L13.3905 27.2805C13.4363 26.2651 13.4668 25.2015 13.4836 24.0327C13.5202 21.5844 15.4702 19.5589 17.9231 19.4223C24.4294 19.0591 30.1453 17.8018 35.3974 15.5786C40.6426 13.3585 45.3011 10.2289 49.6376 6.01137C49.8581 5.82522 50.1442 5.82445 50.3639 6.01137C54.7012 10.2289 59.3597 13.3585 64.6042 15.5786C69.8562 17.8018 75.5722 19.0591 82.0793 19.4223C84.5321 19.5589 86.4822 21.5844 86.518 24.0335C86.5356 25.2084 86.5661 26.2719 86.6119 27.2805C86.8362 39.1106 87.0849 52.5155 82.5729 64.7492Z" fill="white"/>
<path d="M49.9994 25.0801C36.2574 25.0801 25.078 36.2602 25.078 50.0015C25.078 63.7436 36.2574 74.9237 49.9994 74.9237C63.7407 74.9237 74.9208 63.7436 74.9208 50.0015C74.9208 36.2602 63.7407 25.0801 49.9994 25.0801ZM49.9994 69.0551C39.493 69.0551 30.9458 60.5079 30.9458 50.0015C30.9458 39.4951 39.493 30.9478 49.9994 30.9478C60.5051 30.9478 69.0523 39.4951 69.0523 50.0015C69.0523 60.5079 60.5051 69.0551 49.9994 69.0551Z" fill="white"/>
<path d="M57.1619 42.2646L45.5866 53.8399L42.4448 50.6981C41.2989 49.5522 39.4411 49.5522 38.2952 50.6981C37.15 51.844 37.15 53.7018 38.2952 54.847L43.5121 60.0639C44.0851 60.6369 44.8358 60.923 45.5866 60.923C46.3373 60.923 47.088 60.6369 47.661 60.0639L61.3115 46.4134C62.4567 45.2675 62.4567 43.4097 61.3115 42.2646C60.1656 41.1179 58.3078 41.1179 57.1619 42.2646Z" fill="white"/>
</g>
<defs>
<clipPath id="clip0">
<rect width="100" height="100" fill="white"/>
</clipPath>
</defs>
</svg>
