<svg width="100" height="100" viewBox="0 0 100 100" fill="none" xmlns="http://www.w3.org/2000/svg">
<g clip-path="url(#clip0)">
<path d="M85.835 32.4787C86.6441 32.4787 87.2998 31.8228 87.2998 31.0138V18.751C87.2998 16.9034 85.8586 15.3376 84.0188 15.1866C78.2458 14.7124 58.9582 12.3503 53.1409 1.866C52.5024 0.715033 51.2989 0 49.9999 0C48.7013 0 47.4978 0.715033 46.8589 1.866C41.0418 12.3503 21.7542 14.7124 15.9812 15.1866C14.1414 15.3378 12.7002 16.9036 12.7002 18.7512V59.6923C12.7002 81.3285 42.4777 96.7682 48.4472 99.6437C48.9405 99.8814 49.4702 100 49.9997 100C50.5294 100 51.0593 99.8814 51.5524 99.6437C57.5217 96.7684 87.2994 81.329 87.2994 59.6925V37.6544C87.2994 36.8454 86.6438 36.1896 85.8346 36.1896C85.0254 36.1896 84.3698 36.8454 84.3698 37.6544V54.2691H79.2438L79.244 24.0479C79.244 23.3207 78.7108 22.7037 77.9913 22.5985C74.8765 22.1428 71.8835 21.5356 69.0771 20.7944C68.9587 20.162 68.6548 19.5799 68.19 19.1151L65.2392 16.1641C64.6305 15.5553 63.8211 15.2202 62.9605 15.2202C62.0998 15.2202 61.2904 15.5553 60.6817 16.1641L59.4731 17.3727C56.1475 15.8046 53.2936 13.9516 50.9831 11.8585C50.4251 11.3528 49.5743 11.3528 49.0163 11.8585C45.348 15.1817 40.3535 17.8704 34.1723 19.8498C30.4743 21.034 26.3817 21.9588 22.0085 22.5985C21.2888 22.7037 20.7556 23.3207 20.7556 24.0479V32.9956C20.7556 33.8046 21.4113 34.4605 22.2204 34.4605C23.0296 34.4605 23.6853 33.8046 23.6853 32.9956V25.3053C27.7489 24.6539 31.5721 23.7588 35.0658 22.6399C41.1203 20.701 46.137 18.0946 49.9999 14.8829C52.0942 16.6237 54.5348 18.1915 57.2819 19.5641L49.9944 26.8515L46.5411 23.3981C45.9324 22.7893 45.123 22.4541 44.2623 22.4541C43.4015 22.4541 42.5921 22.7893 41.9834 23.3981L39.0326 26.349C37.7762 27.6056 37.7762 29.65 39.0326 30.9064L46.5074 38.3811C47.4388 39.3126 48.6771 39.8255 49.9944 39.8255C51.3118 39.8255 52.5501 39.3126 53.4815 38.3811L68.1902 23.6725C68.2115 23.6512 68.2296 23.6279 68.2503 23.6063C70.8072 24.2846 73.5105 24.8551 76.3147 25.3051L76.3145 54.2691H23.6855V39.6364C23.6855 38.8274 23.0298 38.1716 22.2206 38.1716C21.4115 38.1716 20.7558 38.8274 20.7558 39.6364V54.2691H15.6301V18.751C15.6301 18.4168 15.8896 18.1335 16.2213 18.1063C19.5306 17.8344 26.0602 17.0653 32.6092 14.968C40.9453 12.2985 46.6015 8.36849 49.4206 3.28747C49.5431 3.06677 49.7651 2.92966 49.9999 2.92966C50.2347 2.92966 50.4567 3.06677 50.5792 3.28728C53.3987 8.36868 59.0549 12.2985 67.3908 14.968C73.9398 17.0653 80.4694 17.8344 83.7787 18.1063C84.1102 18.1336 84.3699 18.4168 84.3699 18.751V31.0136C84.3701 31.8228 85.0258 32.4787 85.835 32.4787ZM66.1187 21.601L51.4099 36.3099C51.0317 36.688 50.5292 36.896 49.9946 36.896C49.4599 36.896 48.9571 36.6878 48.5792 36.3099L41.1045 28.8351C40.9902 28.7209 40.9902 28.5349 41.1045 28.4207L44.0552 25.4697C44.1259 25.3988 44.207 25.384 44.2624 25.384C44.3179 25.384 44.3988 25.3988 44.4697 25.4697L48.9587 29.9589C49.2335 30.2337 49.606 30.388 49.9946 30.388C50.3833 30.388 50.7556 30.2337 51.0306 29.9589L62.7537 18.2358C62.8676 18.1217 63.0535 18.1215 63.1678 18.2358L66.1187 21.1869C66.1896 21.2578 66.2045 21.3385 66.2045 21.394C66.2045 21.4494 66.1898 21.5299 66.1187 21.601ZM69.5349 84.6806C61.5647 91.3493 52.7829 95.7991 50.2813 97.0041C50.1024 97.0901 49.8976 97.0901 49.7187 97.0041C47.2169 95.7991 38.4352 91.3489 30.4653 84.6806C26.7138 81.5417 23.6694 78.3781 21.3351 75.2025H27.9686C35.0617 83.1015 45.23 88.9106 49.3179 91.062C49.5308 91.1739 49.7649 91.2303 49.9997 91.2303C50.1954 91.2303 50.3917 91.1911 50.5761 91.1124C50.6208 91.0932 50.6642 91.0719 50.7063 91.0489C54.8046 88.8903 64.9508 83.087 72.0312 75.2027H78.6651C76.3308 78.3781 73.2864 81.5417 69.5349 84.6806ZM84.3701 57.1988V59.6923C84.3701 63.88 83.1123 68.0833 80.6159 72.2731H64.0986C63.2894 72.2731 62.6338 72.9289 62.6338 73.7379C62.6338 74.5469 63.2894 75.2027 64.0986 75.2027H67.9873C61.7717 81.3712 53.8991 86.0062 49.9993 88.1061C46.0958 86.0042 38.226 81.3703 32.012 75.2027H57.458C58.2672 75.2027 58.9229 74.5469 58.9229 73.7379C58.9229 72.9289 58.2672 72.2731 57.458 72.2731H19.3843C16.8879 68.0834 15.6301 63.88 15.6301 59.6923V57.1988H84.3701Z" fill="white"/>
<path d="M36.1862 41.0438H33.4341C32.6249 41.0438 31.9692 41.6997 31.9692 42.5087V50.7637C31.9692 51.5727 32.6249 52.2286 33.4341 52.2286H36.7458C38.7966 52.2286 40.4649 50.5602 40.4649 48.5094C40.4649 47.4134 39.9855 46.4298 39.2286 45.7485C39.4169 45.3309 39.5243 44.8692 39.5243 44.3819C39.5245 42.5413 38.027 41.0438 36.1862 41.0438ZM34.8989 43.9735H36.1862C36.4114 43.9735 36.5948 44.1567 36.5948 44.3819C36.5948 44.6071 36.4116 44.7903 36.1862 44.7903H34.8989V43.9735ZM36.7458 49.2989H34.8989V47.7202H36.1862H36.7458C37.1812 47.7202 37.5353 48.0743 37.5353 48.5096C37.5353 48.945 37.1812 49.2989 36.7458 49.2989Z" fill="white"/>
<path d="M55.3683 49.2989H52.3364C51.5272 49.2989 50.8716 49.9547 50.8716 50.7637C50.8716 51.5727 51.5272 52.2286 52.3364 52.2286H55.3683C57.314 52.2286 58.8968 50.6458 58.8968 48.7001C58.8968 46.7544 57.314 45.1715 55.3683 45.1715H54.4001C54.07 45.1715 53.8013 44.903 53.8013 44.5727C53.8013 44.2426 54.07 43.9739 54.4001 43.9739H57.4319C58.2411 43.9739 58.8968 43.318 58.8968 42.509C58.8968 41.7 58.2411 41.0442 57.4319 41.0442H54.4001C52.4544 41.0442 50.8716 42.627 50.8716 44.5727C50.8716 46.5184 52.4544 48.1012 54.4001 48.1012H55.3683C55.6983 48.1012 55.9671 48.3698 55.9671 48.7001C55.9671 49.0303 55.6983 49.2989 55.3683 49.2989Z" fill="white"/>
<path d="M48.1828 43.9735C48.992 43.9735 49.6476 43.3177 49.6476 42.5087C49.6476 41.6997 48.992 41.0438 48.1828 41.0438H43.0873C42.2781 41.0438 41.6224 41.6997 41.6224 42.5087V50.7636C41.6224 51.5725 42.2781 52.2284 43.0873 52.2284H48.1828C48.992 52.2284 49.6476 51.5725 49.6476 50.7636C49.6476 49.9546 48.992 49.2987 48.1828 49.2987H44.5521V48.1009H47.0619C47.8711 48.1009 48.5267 47.445 48.5267 46.636C48.5267 45.827 47.8711 45.1712 47.0619 45.1712H44.5521V43.9735H48.1828Z" fill="white"/>
<path d="M64.1759 52.2286C64.9851 52.2286 65.6407 51.5727 65.6407 50.7637V43.9737H66.7238C67.5329 43.9737 68.1886 43.3178 68.1886 42.5088C68.1886 41.6999 67.5329 41.044 66.7238 41.044H61.6281C60.8189 41.044 60.1632 41.6999 60.1632 42.5088C60.1632 43.3178 60.8189 43.9737 61.6281 43.9737H62.7111V50.7637C62.7111 51.5727 63.3669 52.2286 64.1759 52.2286Z" fill="white"/>
<path d="M25.9531 68.9988C26.7119 69.7574 27.7199 70.1751 28.792 70.1751C30.5817 70.1751 32.1703 68.972 32.6553 67.2493C32.8744 66.4706 32.4209 65.6616 31.642 65.4425C30.8635 65.223 30.0543 65.6769 29.835 66.4556C29.7041 66.9206 29.2752 67.2454 28.7918 67.2454C28.5024 67.2454 28.2299 67.1324 28.0246 66.9273C27.8207 66.7234 27.7084 66.4517 27.7084 66.1622V63.0017C27.7084 62.4054 28.1944 61.9202 28.7918 61.9202C29.0813 61.9202 29.353 62.0325 29.5569 62.2365C29.6887 62.3683 29.7852 62.5324 29.836 62.7109C30.0567 63.4892 30.8662 63.9408 31.6449 63.7202C32.4231 63.4995 32.8752 62.6896 32.6545 61.9113C32.4678 61.2531 32.1131 60.6491 31.6287 60.1648C30.8713 59.4075 29.8639 58.9904 28.792 58.9904C26.5791 58.9904 24.7789 60.7898 24.7789 63.0015V66.162C24.7791 67.2341 25.1959 68.2415 25.9531 68.9988Z" fill="white"/>
<path d="M61.8327 70.1751C63.6228 70.1751 65.2114 68.972 65.696 67.2492C65.9151 66.4704 65.4614 65.6615 64.6827 65.4423C63.904 65.2234 63.095 65.6769 62.8759 66.4556C62.745 66.9206 62.3161 67.2453 61.8327 67.2453C61.5433 67.2453 61.2708 67.1322 61.0655 66.9271C60.8616 66.7232 60.7493 66.4515 60.7493 66.1621V63.0015C60.7493 62.4052 61.2353 61.9201 61.8327 61.9201C62.1222 61.9201 62.3938 62.0324 62.5977 62.2363C62.7296 62.3681 62.8261 62.5322 62.8769 62.7107C63.0976 63.489 63.9069 63.9406 64.6858 63.7201C65.464 63.4994 65.9161 62.6894 65.6954 61.9111C65.5087 61.2529 65.154 60.649 64.6696 60.1646C63.9122 59.4074 62.9048 58.9902 61.8329 58.9902C59.62 58.9902 57.8198 60.7896 57.8198 63.0013V66.1619C57.8198 67.2339 58.2368 68.2413 58.994 68.9986C59.7526 69.7574 60.7606 70.1751 61.8327 70.1751Z" fill="white"/>
<path d="M68.6611 70.1752H73.7566C74.5658 70.1752 75.2215 69.5193 75.2215 68.7103C75.2215 67.9013 74.5658 67.2455 73.7566 67.2455H70.126V66.0478H72.6357C73.4449 66.0478 74.1006 65.392 74.1006 64.583C74.1006 63.774 73.4449 63.1181 72.6357 63.1181H70.126V61.9203H73.7566C74.5658 61.9203 75.2215 61.2644 75.2215 60.4554C75.2215 59.6465 74.5658 58.9906 73.7566 58.9906H68.6611C67.852 58.9906 67.1963 59.6465 67.1963 60.4554V68.7103C67.1963 69.5193 67.8521 70.1752 68.6611 70.1752Z" fill="white"/>
<path d="M47.8547 70.1752C50.0672 70.1752 51.8674 68.3752 51.8674 66.1627V63.0033C51.8674 60.7906 50.0672 58.9906 47.8547 58.9906C45.6422 58.9906 43.842 60.7906 43.842 63.0033V66.1627C43.842 68.3752 45.6422 70.1752 47.8547 70.1752ZM46.7717 63.0033C46.7717 62.406 47.2575 61.9203 47.8547 61.9203C48.452 61.9203 48.9378 62.406 48.9378 63.0033V66.1627C48.9378 66.7597 48.452 67.2455 47.8547 67.2455C47.2575 67.2455 46.7717 66.7597 46.7717 66.1627V63.0033Z" fill="white"/>
<path d="M54.9449 70.1752C55.7541 70.1752 56.4098 69.5193 56.4098 68.7103V60.4554C56.4098 59.6465 55.7541 58.9906 54.9449 58.9906C54.1358 58.9906 53.4801 59.6465 53.4801 60.4554V68.7103C53.4801 69.5193 54.1358 70.1752 54.9449 70.1752Z" fill="white"/>
<path d="M35.6005 70.1752C36.4096 70.1752 37.0653 69.5193 37.0653 68.7103V66.0478H39.2313V68.7103C39.2313 69.5193 39.887 70.1752 40.6962 70.1752C41.5053 70.1752 42.161 69.5193 42.161 68.7103V60.4554C42.161 59.6465 41.5053 58.9906 40.6962 58.9906C39.887 58.9906 39.2313 59.6465 39.2313 60.4554V63.1181H37.0653V60.4554C37.0653 59.6465 36.4096 58.9906 35.6005 58.9906C34.7913 58.9906 34.1356 59.6465 34.1356 60.4554V68.7103C34.1356 69.5193 34.7913 70.1752 35.6005 70.1752Z" fill="white"/>
</g>
<defs>
<clipPath id="clip0">
<rect width="100" height="100" fill="white"/>
</clipPath>
</defs>
</svg>
