<svg width="30" height="30" viewBox="0 0 100 100" fill="none" xmlns="http://www.w3.org/2000/svg">
<g clip-path="url(#clip0)">
<path d="M45.4071 76.2352C44.6449 76.9966 44.6449 78.2333 45.4071 78.9963C46.1708 79.7584 47.4067 79.7584 48.1682 78.9963C48.9319 78.2333 48.9319 76.9966 48.1682 76.2352C47.4067 75.4715 46.1708 75.4715 45.4071 76.2352V76.2352Z" fill="white"/>
<path d="M95.4925 72.8431L80.664 60.234C80.5954 60.176 80.5229 60.1226 80.4474 60.0745C76.5571 57.598 71.5622 58.1466 68.3006 61.4074L60.2157 69.4915C59.6557 70.0522 58.8203 70.2178 58.0879 69.9157C48.9586 66.1391 41.4589 60.4537 35.7971 53.0188C31.4796 47.3494 29.9232 42.8443 29.718 42.2095C29.6936 42.0737 29.6547 41.9387 29.5997 41.8067C29.2968 41.0743 29.4624 40.2404 30.0239 39.6804L38.108 31.594C41.3696 28.3324 41.9174 23.3375 39.4409 19.4472C39.421 19.4159 39.4004 19.3854 39.3791 19.3549L28.6705 4.47378C25.3013 -0.753118 17.9626 -1.54276 13.5582 2.86093L11.9392 4.47988C11.9384 4.48141 11.9369 4.48293 11.9354 4.4837L6.15536 10.2637C-0.737031 17.1569 -1.86466 27.5145 2.89532 40.219C6.97247 51.1016 15.1344 63.0118 25.8773 73.7548C36.8744 84.7518 49.1066 93.0648 60.3202 97.1625C71.4195 101.218 83.226 101.717 91.5825 93.36L97.0337 87.9096C101.418 83.5242 100.653 76.2336 95.4925 72.8431V72.8431ZM78.244 63.3025L93.0595 75.9009C93.1274 75.9589 93.1999 76.0123 93.2754 76.0604C96.4401 78.0753 96.9192 82.5003 94.2711 85.1477L93.8667 85.5529L68.5974 66.6335L71.0624 64.1692C72.9889 62.242 75.9247 61.8934 78.244 63.3025V63.3025ZM25.4074 6.61993C25.4272 6.65121 25.4478 6.68249 25.4692 6.71224L36.1732 21.588C37.6274 23.9158 37.2909 26.8874 35.3462 28.8321L32.9574 31.2217L15.8615 6.08129L16.32 5.62277C18.9788 2.96392 23.4001 3.4667 25.4074 6.61993ZM61.66 93.4935C50.9697 89.5873 39.2425 81.5963 28.6392 70.9929C18.2815 60.636 10.4377 49.2202 6.55209 38.8488C3.63538 31.0637 1.67844 20.2643 8.9172 13.0263L13.05 8.89272L30.146 34.0331L27.2628 36.9178C25.6225 38.555 25.1068 40.9781 25.9254 43.1357C26.5419 45.6656 29.3785 50.9169 32.2403 54.7866C36.4517 60.4812 44.0956 68.3539 56.5948 73.5251C58.7913 74.4338 61.296 73.9348 62.9776 72.2541L65.8073 69.4236L91.0766 88.3429L88.8206 90.5982C81.0608 98.3588 69.7677 96.456 61.66 93.4935Z" fill="white"/>
<path d="M41.7419 71.5721C39.6789 69.7632 36.1107 66.6519 34.2315 64.7186C29.6234 59.9831 24.7886 54.2427 21.9139 50.0954C21.2997 49.2088 20.0828 48.9876 19.1963 49.6025C18.3098 50.2167 18.0893 51.4336 18.7034 52.3201C22.3289 57.5508 27.6558 63.5612 31.4316 67.4416C33.4152 69.4832 37.014 72.6219 39.1662 74.5087C39.9757 75.2182 41.2094 75.1404 41.9227 74.3278C42.6338 73.5176 42.5529 72.2832 41.7419 71.5721Z" fill="white"/>
</g>
<defs>
<clipPath id="clip0">
<rect width="100" height="100" fill="white"/>
</clipPath>
</defs>
</svg>
